<?xml version="1.0" encoding="utf-8" standalone="no"?>
<!DOCTYPE svg PUBLIC "-//W3C//DTD SVG 1.1//EN"
  "http://www.w3.org/Graphics/SVG/1.1/DTD/svg11.dtd">
<svg xmlns:xlink="http://www.w3.org/1999/xlink" width="537.180703pt" height="336.198281pt" viewBox="0 0 537.180703 336.198281" xmlns="http://www.w3.org/2000/svg" version="1.1">
 <metadata>
  <rdf:RDF xmlns:dc="http://purl.org/dc/elements/1.1/" xmlns:cc="http://creativecommons.org/ns#" xmlns:rdf="http://www.w3.org/1999/02/22-rdf-syntax-ns#">
   <cc:Work>
    <dc:type rdf:resource="http://purl.org/dc/dcmitype/StillImage"/>
    <dc:date>2026-07-17T15:55:19.668396</dc:date>
    <dc:format>image/svg+xml</dc:format>
    <dc:creator>
     <cc:Agent>
      <dc:title>Matplotlib v3.11.0, https://matplotlib.org/</dc:title>
     </cc:Agent>
    </dc:creator>
   </cc:Work>
  </rdf:RDF>
 </metadata>
 <defs>
  <style type="text/css">*{stroke-linejoin: round; stroke-linecap: butt}</style>
 </defs>
 <g id="figure_1">
  <g id="patch_1">
   <path d="M 0 336.198281 
L 537.180703 336.198281 
L 537.180703 0 
L 0 0 
z
" style="fill: #ffffff"/>
  </g>
  <g id="axes_1">
   <g id="patch_2">
    <path d="M 79.56 249.798281 
L 470.16 249.798281 
L 470.16 35.958281 
L 79.56 35.958281 
z
" style="fill: #ffffff"/>
   </g>
   <g id="matplotlib.axis_1">
    <g id="xtick_1">
     <g id="line2d_1">
      <path d="M 274.86 249.798281 
L 274.86 35.958281 
" clip-path="url(#p5b30633ef8)" style="fill: none; stroke: #e1e0d9; stroke-width: 0.6; stroke-linecap: square"/>
     </g>
     <g id="line2d_2">
      <defs>
       <path id="m5e6898a662" d="M 0 0 
L 0 3.5 
" style="stroke: #52514e; stroke-width: 0.8"/>
      </defs>
      <g>
       <use xlink:href="#m5e6898a662" x="274.86" y="249.798281" style="fill: #52514e; stroke: #52514e; stroke-width: 0.8"/>
      </g>
     </g>
     <g id="text_1">
      <!-- Unmapped -->
      <g style="fill: #52514e" transform="translate(250.234453 263.636875) scale(0.09 -0.09)">
       <defs>
        <path id="DejaVuSans-38" d="M 556 4666 
L 1191 4666 
L 1191 1831 
Q 1191 1081 1462 751 
Q 1734 422 2344 422 
Q 2950 422 3222 751 
Q 3494 1081 3494 1831 
L 3494 4666 
L 4128 4666 
L 4128 1753 
Q 4128 841 3676 375 
Q 3225 -91 2344 -91 
Q 1459 -91 1007 375 
Q 556 841 556 1753 
L 556 4666 
z
" transform="scale(0.015625)"/>
        <path id="DejaVuSans-51" d="M 3513 2113 
L 3513 0 
L 2938 0 
L 2938 2094 
Q 2938 2591 2744 2837 
Q 2550 3084 2163 3084 
Q 1697 3084 1428 2787 
Q 1159 2491 1159 1978 
L 1159 0 
L 581 0 
L 581 3500 
L 1159 3500 
L 1159 2956 
Q 1366 3272 1645 3428 
Q 1925 3584 2291 3584 
Q 2894 3584 3203 3211 
Q 3513 2838 3513 2113 
z
" transform="scale(0.015625)"/>
        <path id="DejaVuSans-50" d="M 3328 2828 
Q 3544 3216 3844 3400 
Q 4144 3584 4550 3584 
Q 5097 3584 5394 3201 
Q 5691 2819 5691 2113 
L 5691 0 
L 5113 0 
L 5113 2094 
Q 5113 2597 4934 2840 
Q 4756 3084 4391 3084 
Q 3944 3084 3684 2787 
Q 3425 2491 3425 1978 
L 3425 0 
L 2847 0 
L 2847 2094 
Q 2847 2600 2669 2842 
Q 2491 3084 2119 3084 
Q 1678 3084 1418 2786 
Q 1159 2488 1159 1978 
L 1159 0 
L 581 0 
L 581 3500 
L 1159 3500 
L 1159 2956 
Q 1356 3278 1631 3431 
Q 1906 3584 2284 3584 
Q 2666 3584 2933 3390 
Q 3200 3197 3328 2828 
z
" transform="scale(0.015625)"/>
        <path id="DejaVuSans-44" d="M 2194 1759 
Q 1497 1759 1228 1600 
Q 959 1441 959 1056 
Q 959 750 1161 570 
Q 1363 391 1709 391 
Q 2188 391 2477 730 
Q 2766 1069 2766 1631 
L 2766 1759 
L 2194 1759 
z
M 3341 1997 
L 3341 0 
L 2766 0 
L 2766 531 
Q 2569 213 2275 61 
Q 1981 -91 1556 -91 
Q 1019 -91 701 211 
Q 384 513 384 1019 
Q 384 1609 779 1909 
Q 1175 2209 1959 2209 
L 2766 2209 
L 2766 2266 
Q 2766 2663 2505 2880 
Q 2244 3097 1772 3097 
Q 1472 3097 1187 3025 
Q 903 2953 641 2809 
L 641 3341 
Q 956 3463 1253 3523 
Q 1550 3584 1831 3584 
Q 2591 3584 2966 3190 
Q 3341 2797 3341 1997 
z
" transform="scale(0.015625)"/>
        <path id="DejaVuSans-53" d="M 1159 525 
L 1159 -1331 
L 581 -1331 
L 581 3500 
L 1159 3500 
L 1159 2969 
Q 1341 3281 1617 3432 
Q 1894 3584 2278 3584 
Q 2916 3584 3314 3078 
Q 3713 2572 3713 1747 
Q 3713 922 3314 415 
Q 2916 -91 2278 -91 
Q 1894 -91 1617 61 
Q 1341 213 1159 525 
z
M 3116 1747 
Q 3116 2381 2855 2742 
Q 2594 3103 2138 3103 
Q 1681 3103 1420 2742 
Q 1159 2381 1159 1747 
Q 1159 1113 1420 752 
Q 1681 391 2138 391 
Q 2594 391 2855 752 
Q 3116 1113 3116 1747 
z
" transform="scale(0.015625)"/>
        <path id="DejaVuSans-48" d="M 3597 1894 
L 3597 1613 
L 953 1613 
Q 991 1019 1311 708 
Q 1631 397 2203 397 
Q 2534 397 2845 478 
Q 3156 559 3463 722 
L 3463 178 
Q 3153 47 2828 -22 
Q 2503 -91 2169 -91 
Q 1331 -91 842 396 
Q 353 884 353 1716 
Q 353 2575 817 3079 
Q 1281 3584 2069 3584 
Q 2775 3584 3186 3129 
Q 3597 2675 3597 1894 
z
M 3022 2063 
Q 3016 2534 2758 2815 
Q 2500 3097 2075 3097 
Q 1594 3097 1305 2825 
Q 1016 2553 972 2059 
L 3022 2063 
z
" transform="scale(0.015625)"/>
        <path id="DejaVuSans-47" d="M 2906 2969 
L 2906 4863 
L 3481 4863 
L 3481 0 
L 2906 0 
L 2906 525 
Q 2725 213 2448 61 
Q 2172 -91 1784 -91 
Q 1150 -91 751 415 
Q 353 922 353 1747 
Q 353 2572 751 3078 
Q 1150 3584 1784 3584 
Q 2172 3584 2448 3432 
Q 2725 3281 2906 2969 
z
M 947 1747 
Q 947 1113 1208 752 
Q 1469 391 1925 391 
Q 2381 391 2643 752 
Q 2906 1113 2906 1747 
Q 2906 2381 2643 2742 
Q 2381 3103 1925 3103 
Q 1469 3103 1208 2742 
Q 947 2381 947 1747 
z
" transform="scale(0.015625)"/>
       </defs>
       <use xlink:href="#DejaVuSans-38"/>
       <use xlink:href="#DejaVuSans-51" transform="translate(73.1875 0)"/>
       <use xlink:href="#DejaVuSans-50" transform="translate(136.5625 0)"/>
       <use xlink:href="#DejaVuSans-44" transform="translate(233.96875 0)"/>
       <use xlink:href="#DejaVuSans-53" transform="translate(295.25 0)"/>
       <use xlink:href="#DejaVuSans-53" transform="translate(358.734375 0)"/>
       <use xlink:href="#DejaVuSans-48" transform="translate(422.21875 0)"/>
       <use xlink:href="#DejaVuSans-47" transform="translate(483.75 0)"/>
      </g>
     </g>
    </g>
   </g>
   <g id="matplotlib.axis_2">
    <g id="ytick_1">
     <g id="line2d_3">
      <path d="M 79.56 249.798281 
L 470.16 249.798281 
" clip-path="url(#p5b30633ef8)" style="fill: none; stroke: #e1e0d9; stroke-width: 0.6; stroke-linecap: square"/>
     </g>
     <g id="line2d_4">
      <defs>
       <path id="ma31af6b0dc" d="M 0 0 
L -3.5 0 
" style="stroke: #52514e; stroke-width: 0.8"/>
      </defs>
      <g>
       <use xlink:href="#ma31af6b0dc" x="79.56" y="249.798281" style="fill: #52514e; stroke: #52514e; stroke-width: 0.8"/>
      </g>
     </g>
     <g id="text_2">
      <!-- 0 -->
      <g style="fill: #52514e" transform="translate(66.1975 253.597109) scale(0.1 -0.1)">
       <defs>
        <path id="DejaVuSans-13" d="M 2034 4250 
Q 1547 4250 1301 3770 
Q 1056 3291 1056 2328 
Q 1056 1369 1301 889 
Q 1547 409 2034 409 
Q 2525 409 2770 889 
Q 3016 1369 3016 2328 
Q 3016 3291 2770 3770 
Q 2525 4250 2034 4250 
z
M 2034 4750 
Q 2819 4750 3233 4129 
Q 3647 3509 3647 2328 
Q 3647 1150 3233 529 
Q 2819 -91 2034 -91 
Q 1250 -91 836 529 
Q 422 1150 422 2328 
Q 422 3509 836 4129 
Q 1250 4750 2034 4750 
z
" transform="scale(0.015625)"/>
       </defs>
       <use xlink:href="#DejaVuSans-13"/>
      </g>
     </g>
    </g>
    <g id="ytick_2">
     <g id="line2d_5">
      <path d="M 79.56 205.248281 
L 470.16 205.248281 
" clip-path="url(#p5b30633ef8)" style="fill: none; stroke: #e1e0d9; stroke-width: 0.6; stroke-linecap: square"/>
     </g>
     <g id="line2d_6">
      <g>
       <use xlink:href="#ma31af6b0dc" x="79.56" y="205.248281" style="fill: #52514e; stroke: #52514e; stroke-width: 0.8"/>
      </g>
     </g>
     <g id="text_3">
      <!-- 2 -->
      <g style="fill: #52514e" transform="translate(66.1975 209.047109) scale(0.1 -0.1)">
       <defs>
        <path id="DejaVuSans-15" d="M 1228 531 
L 3431 531 
L 3431 0 
L 469 0 
L 469 531 
Q 828 903 1448 1529 
Q 2069 2156 2228 2338 
Q 2531 2678 2651 2914 
Q 2772 3150 2772 3378 
Q 2772 3750 2511 3984 
Q 2250 4219 1831 4219 
Q 1534 4219 1204 4116 
Q 875 4013 500 3803 
L 500 4441 
Q 881 4594 1212 4672 
Q 1544 4750 1819 4750 
Q 2544 4750 2975 4387 
Q 3406 4025 3406 3419 
Q 3406 3131 3298 2873 
Q 3191 2616 2906 2266 
Q 2828 2175 2409 1742 
Q 1991 1309 1228 531 
z
" transform="scale(0.015625)"/>
       </defs>
       <use xlink:href="#DejaVuSans-15"/>
      </g>
     </g>
    </g>
    <g id="ytick_3">
     <g id="line2d_7">
      <path d="M 79.56 160.698281 
L 470.16 160.698281 
" clip-path="url(#p5b30633ef8)" style="fill: none; stroke: #e1e0d9; stroke-width: 0.6; stroke-linecap: square"/>
     </g>
     <g id="line2d_8">
      <g>
       <use xlink:href="#ma31af6b0dc" x="79.56" y="160.698281" style="fill: #52514e; stroke: #52514e; stroke-width: 0.8"/>
      </g>
     </g>
     <g id="text_4">
      <!-- 4 -->
      <g style="fill: #52514e" transform="translate(66.1975 164.497109) scale(0.1 -0.1)">
       <defs>
        <path id="DejaVuSans-17" d="M 2419 4116 
L 825 1625 
L 2419 1625 
L 2419 4116 
z
M 2253 4666 
L 3047 4666 
L 3047 1625 
L 3713 1625 
L 3713 1100 
L 3047 1100 
L 3047 0 
L 2419 0 
L 2419 1100 
L 313 1100 
L 313 1709 
L 2253 4666 
z
" transform="scale(0.015625)"/>
       </defs>
       <use xlink:href="#DejaVuSans-17"/>
      </g>
     </g>
    </g>
    <g id="ytick_4">
     <g id="line2d_9">
      <path d="M 79.56 116.148281 
L 470.16 116.148281 
" clip-path="url(#p5b30633ef8)" style="fill: none; stroke: #e1e0d9; stroke-width: 0.6; stroke-linecap: square"/>
     </g>
     <g id="line2d_10">
      <g>
       <use xlink:href="#ma31af6b0dc" x="79.56" y="116.148281" style="fill: #52514e; stroke: #52514e; stroke-width: 0.8"/>
      </g>
     </g>
     <g id="text_5">
      <!-- 6 -->
      <g style="fill: #52514e" transform="translate(66.1975 119.947109) scale(0.1 -0.1)">
       <defs>
        <path id="DejaVuSans-19" d="M 2113 2584 
Q 1688 2584 1439 2293 
Q 1191 2003 1191 1497 
Q 1191 994 1439 701 
Q 1688 409 2113 409 
Q 2538 409 2786 701 
Q 3034 994 3034 1497 
Q 3034 2003 2786 2293 
Q 2538 2584 2113 2584 
z
M 3366 4563 
L 3366 3988 
Q 3128 4100 2886 4159 
Q 2644 4219 2406 4219 
Q 1781 4219 1451 3797 
Q 1122 3375 1075 2522 
Q 1259 2794 1537 2939 
Q 1816 3084 2150 3084 
Q 2853 3084 3261 2657 
Q 3669 2231 3669 1497 
Q 3669 778 3244 343 
Q 2819 -91 2113 -91 
Q 1303 -91 875 529 
Q 447 1150 447 2328 
Q 447 3434 972 4092 
Q 1497 4750 2381 4750 
Q 2619 4750 2861 4703 
Q 3103 4656 3366 4563 
z
" transform="scale(0.015625)"/>
       </defs>
       <use xlink:href="#DejaVuSans-19"/>
      </g>
     </g>
    </g>
    <g id="ytick_5">
     <g id="line2d_11">
      <path d="M 79.56 71.598281 
L 470.16 71.598281 
" clip-path="url(#p5b30633ef8)" style="fill: none; stroke: #e1e0d9; stroke-width: 0.6; stroke-linecap: square"/>
     </g>
     <g id="line2d_12">
      <g>
       <use xlink:href="#ma31af6b0dc" x="79.56" y="71.598281" style="fill: #52514e; stroke: #52514e; stroke-width: 0.8"/>
      </g>
     </g>
     <g id="text_6">
      <!-- 8 -->
      <g style="fill: #52514e" transform="translate(66.1975 75.397109) scale(0.1 -0.1)">
       <defs>
        <path id="DejaVuSans-1b" d="M 2034 2216 
Q 1584 2216 1326 1975 
Q 1069 1734 1069 1313 
Q 1069 891 1326 650 
Q 1584 409 2034 409 
Q 2484 409 2743 651 
Q 3003 894 3003 1313 
Q 3003 1734 2745 1975 
Q 2488 2216 2034 2216 
z
M 1403 2484 
Q 997 2584 770 2862 
Q 544 3141 544 3541 
Q 544 4100 942 4425 
Q 1341 4750 2034 4750 
Q 2731 4750 3128 4425 
Q 3525 4100 3525 3541 
Q 3525 3141 3298 2862 
Q 3072 2584 2669 2484 
Q 3125 2378 3379 2068 
Q 3634 1759 3634 1313 
Q 3634 634 3220 271 
Q 2806 -91 2034 -91 
Q 1263 -91 848 271 
Q 434 634 434 1313 
Q 434 1759 690 2068 
Q 947 2378 1403 2484 
z
M 1172 3481 
Q 1172 3119 1398 2916 
Q 1625 2713 2034 2713 
Q 2441 2713 2670 2916 
Q 2900 3119 2900 3481 
Q 2900 3844 2670 4047 
Q 2441 4250 2034 4250 
Q 1625 4250 1398 4047 
Q 1172 3844 1172 3481 
z
" transform="scale(0.015625)"/>
       </defs>
       <use xlink:href="#DejaVuSans-1b"/>
      </g>
     </g>
    </g>
    <g id="text_7">
     <!-- Consensus signals (n) -->
     <g style="fill: #52514e" transform="translate(59.795156 197.468906) rotate(-90) scale(0.1 -0.1)">
      <defs>
       <path id="DejaVuSans-26" d="M 4122 4306 
L 4122 3641 
Q 3803 3938 3442 4084 
Q 3081 4231 2675 4231 
Q 1875 4231 1450 3742 
Q 1025 3253 1025 2328 
Q 1025 1406 1450 917 
Q 1875 428 2675 428 
Q 3081 428 3442 575 
Q 3803 722 4122 1019 
L 4122 359 
Q 3791 134 3420 21 
Q 3050 -91 2638 -91 
Q 1578 -91 968 557 
Q 359 1206 359 2328 
Q 359 3453 968 4101 
Q 1578 4750 2638 4750 
Q 3056 4750 3426 4639 
Q 3797 4528 4122 4306 
z
" transform="scale(0.015625)"/>
       <path id="DejaVuSans-52" d="M 1959 3097 
Q 1497 3097 1228 2736 
Q 959 2375 959 1747 
Q 959 1119 1226 758 
Q 1494 397 1959 397 
Q 2419 397 2687 759 
Q 2956 1122 2956 1747 
Q 2956 2369 2687 2733 
Q 2419 3097 1959 3097 
z
M 1959 3584 
Q 2709 3584 3137 3096 
Q 3566 2609 3566 1747 
Q 3566 888 3137 398 
Q 2709 -91 1959 -91 
Q 1206 -91 779 398 
Q 353 888 353 1747 
Q 353 2609 779 3096 
Q 1206 3584 1959 3584 
z
" transform="scale(0.015625)"/>
       <path id="DejaVuSans-56" d="M 2834 3397 
L 2834 2853 
Q 2591 2978 2328 3040 
Q 2066 3103 1784 3103 
Q 1356 3103 1142 2972 
Q 928 2841 928 2578 
Q 928 2378 1081 2264 
Q 1234 2150 1697 2047 
L 1894 2003 
Q 2506 1872 2764 1633 
Q 3022 1394 3022 966 
Q 3022 478 2636 193 
Q 2250 -91 1575 -91 
Q 1294 -91 989 -36 
Q 684 19 347 128 
L 347 722 
Q 666 556 975 473 
Q 1284 391 1588 391 
Q 1994 391 2212 530 
Q 2431 669 2431 922 
Q 2431 1156 2273 1281 
Q 2116 1406 1581 1522 
L 1381 1569 
Q 847 1681 609 1914 
Q 372 2147 372 2553 
Q 372 3047 722 3315 
Q 1072 3584 1716 3584 
Q 2034 3584 2315 3537 
Q 2597 3491 2834 3397 
z
" transform="scale(0.015625)"/>
       <path id="DejaVuSans-58" d="M 544 1381 
L 544 3500 
L 1119 3500 
L 1119 1403 
Q 1119 906 1312 657 
Q 1506 409 1894 409 
Q 2359 409 2629 706 
Q 2900 1003 2900 1516 
L 2900 3500 
L 3475 3500 
L 3475 0 
L 2900 0 
L 2900 538 
Q 2691 219 2414 64 
Q 2138 -91 1772 -91 
Q 1169 -91 856 284 
Q 544 659 544 1381 
z
M 1991 3584 
L 1991 3584 
z
" transform="scale(0.015625)"/>
       <path id="DejaVuSans-3" transform="scale(0.015625)"/>
       <path id="DejaVuSans-4c" d="M 603 3500 
L 1178 3500 
L 1178 0 
L 603 0 
L 603 3500 
z
M 603 4863 
L 1178 4863 
L 1178 4134 
L 603 4134 
L 603 4863 
z
" transform="scale(0.015625)"/>
       <path id="DejaVuSans-4a" d="M 2906 1791 
Q 2906 2416 2648 2759 
Q 2391 3103 1925 3103 
Q 1463 3103 1205 2759 
Q 947 2416 947 1791 
Q 947 1169 1205 825 
Q 1463 481 1925 481 
Q 2391 481 2648 825 
Q 2906 1169 2906 1791 
z
M 3481 434 
Q 3481 -459 3084 -895 
Q 2688 -1331 1869 -1331 
Q 1566 -1331 1297 -1286 
Q 1028 -1241 775 -1147 
L 775 -588 
Q 1028 -725 1275 -790 
Q 1522 -856 1778 -856 
Q 2344 -856 2625 -561 
Q 2906 -266 2906 331 
L 2906 616 
Q 2728 306 2450 153 
Q 2172 0 1784 0 
Q 1141 0 747 490 
Q 353 981 353 1791 
Q 353 2603 747 3093 
Q 1141 3584 1784 3584 
Q 2172 3584 2450 3431 
Q 2728 3278 2906 2969 
L 2906 3500 
L 3481 3500 
L 3481 434 
z
" transform="scale(0.015625)"/>
       <path id="DejaVuSans-4f" d="M 603 4863 
L 1178 4863 
L 1178 0 
L 603 0 
L 603 4863 
z
" transform="scale(0.015625)"/>
       <path id="DejaVuSans-b" d="M 1984 4856 
Q 1566 4138 1362 3434 
Q 1159 2731 1159 2009 
Q 1159 1288 1364 580 
Q 1569 -128 1984 -844 
L 1484 -844 
Q 1016 -109 783 600 
Q 550 1309 550 2009 
Q 550 2706 781 3412 
Q 1013 4119 1484 4856 
L 1984 4856 
z
" transform="scale(0.015625)"/>
       <path id="DejaVuSans-c" d="M 513 4856 
L 1013 4856 
Q 1481 4119 1714 3412 
Q 1947 2706 1947 2009 
Q 1947 1309 1714 600 
Q 1481 -109 1013 -844 
L 513 -844 
Q 928 -128 1133 580 
Q 1338 1288 1338 2009 
Q 1338 2731 1133 3434 
Q 928 4138 513 4856 
z
" transform="scale(0.015625)"/>
      </defs>
      <use xlink:href="#DejaVuSans-26"/>
      <use xlink:href="#DejaVuSans-52" transform="translate(69.828125 0)"/>
      <use xlink:href="#DejaVuSans-51" transform="translate(131.015625 0)"/>
      <use xlink:href="#DejaVuSans-56" transform="translate(194.390625 0)"/>
      <use xlink:href="#DejaVuSans-48" transform="translate(246.484375 0)"/>
      <use xlink:href="#DejaVuSans-51" transform="translate(308.015625 0)"/>
      <use xlink:href="#DejaVuSans-56" transform="translate(371.390625 0)"/>
      <use xlink:href="#DejaVuSans-58" transform="translate(423.484375 0)"/>
      <use xlink:href="#DejaVuSans-56" transform="translate(486.859375 0)"/>
      <use xlink:href="#DejaVuSans-3" transform="translate(538.953125 0)"/>
      <use xlink:href="#DejaVuSans-56" transform="translate(570.734375 0)"/>
      <use xlink:href="#DejaVuSans-4c" transform="translate(622.828125 0)"/>
      <use xlink:href="#DejaVuSans-4a" transform="translate(650.609375 0)"/>
      <use xlink:href="#DejaVuSans-51" transform="translate(714.09375 0)"/>
      <use xlink:href="#DejaVuSans-44" transform="translate(777.46875 0)"/>
      <use xlink:href="#DejaVuSans-4f" transform="translate(838.75 0)"/>
      <use xlink:href="#DejaVuSans-56" transform="translate(866.53125 0)"/>
      <use xlink:href="#DejaVuSans-3" transform="translate(918.625 0)"/>
      <use xlink:href="#DejaVuSans-b" transform="translate(950.40625 0)"/>
      <use xlink:href="#DejaVuSans-51" transform="translate(989.421875 0)"/>
      <use xlink:href="#DejaVuSans-c" transform="translate(1052.796875 0)"/>
     </g>
    </g>
   </g>
   <g id="patch_3">
    <path d="M 97.314545 249.798281 
L 452.405455 249.798281 
L 452.405455 71.598281 
L 97.314545 71.598281 
z
" clip-path="url(#p5b30633ef8)" style="fill: #2a78d6"/>
   </g>
   <g id="patch_4">
    <path d="M 79.56 249.798281 
L 79.56 35.958281 
" style="fill: none; stroke: #e1e0d9; stroke-width: 0.8; stroke-linejoin: miter; stroke-linecap: square"/>
   </g>
   <g id="patch_5">
    <path d="M 79.56 249.798281 
L 470.16 249.798281 
" style="fill: none; stroke: #e1e0d9; stroke-width: 0.8; stroke-linejoin: miter; stroke-linecap: square"/>
   </g>
   <g id="text_8">
    <!-- 8 -->
    <g style="fill: #0b0b0b" transform="translate(271.996875 66.094922) scale(0.09 -0.09)">
     <use xlink:href="#DejaVuSans-1b"/>
    </g>
   </g>
   <g id="text_9">
    <!-- No licensed MedDRA PT-&gt;SOC crosswalk is available (MSSO-licensed; -->
    <g style="fill: #ffffff" transform="translate(118.590469 139.815293) scale(0.09 -0.09)">
     <defs>
      <path id="DejaVuSans-31" d="M 628 4666 
L 1478 4666 
L 3547 763 
L 3547 4666 
L 4159 4666 
L 4159 0 
L 3309 0 
L 1241 3903 
L 1241 0 
L 628 0 
L 628 4666 
z
" transform="scale(0.015625)"/>
      <path id="DejaVuSans-46" d="M 3122 3366 
L 3122 2828 
Q 2878 2963 2633 3030 
Q 2388 3097 2138 3097 
Q 1578 3097 1268 2742 
Q 959 2388 959 1747 
Q 959 1106 1268 751 
Q 1578 397 2138 397 
Q 2388 397 2633 464 
Q 2878 531 3122 666 
L 3122 134 
Q 2881 22 2623 -34 
Q 2366 -91 2075 -91 
Q 1284 -91 818 406 
Q 353 903 353 1747 
Q 353 2603 823 3093 
Q 1294 3584 2113 3584 
Q 2378 3584 2631 3529 
Q 2884 3475 3122 3366 
z
" transform="scale(0.015625)"/>
      <path id="DejaVuSans-30" d="M 628 4666 
L 1569 4666 
L 2759 1491 
L 3956 4666 
L 4897 4666 
L 4897 0 
L 4281 0 
L 4281 4097 
L 3078 897 
L 2444 897 
L 1241 4097 
L 1241 0 
L 628 0 
L 628 4666 
z
" transform="scale(0.015625)"/>
      <path id="DejaVuSans-27" d="M 1259 4147 
L 1259 519 
L 2022 519 
Q 2988 519 3436 956 
Q 3884 1394 3884 2338 
Q 3884 3275 3436 3711 
Q 2988 4147 2022 4147 
L 1259 4147 
z
M 628 4666 
L 1925 4666 
Q 3281 4666 3915 4102 
Q 4550 3538 4550 2338 
Q 4550 1131 3912 565 
Q 3275 0 1925 0 
L 628 0 
L 628 4666 
z
" transform="scale(0.015625)"/>
      <path id="DejaVuSans-35" d="M 2841 2188 
Q 3044 2119 3236 1894 
Q 3428 1669 3622 1275 
L 4263 0 
L 3584 0 
L 2988 1197 
Q 2756 1666 2539 1819 
Q 2322 1972 1947 1972 
L 1259 1972 
L 1259 0 
L 628 0 
L 628 4666 
L 2053 4666 
Q 2853 4666 3247 4331 
Q 3641 3997 3641 3322 
Q 3641 2881 3436 2590 
Q 3231 2300 2841 2188 
z
M 1259 4147 
L 1259 2491 
L 2053 2491 
Q 2509 2491 2742 2702 
Q 2975 2913 2975 3322 
Q 2975 3731 2742 3939 
Q 2509 4147 2053 4147 
L 1259 4147 
z
" transform="scale(0.015625)"/>
      <path id="DejaVuSans-24" d="M 2188 4044 
L 1331 1722 
L 3047 1722 
L 2188 4044 
z
M 1831 4666 
L 2547 4666 
L 4325 0 
L 3669 0 
L 3244 1197 
L 1141 1197 
L 716 0 
L 50 0 
L 1831 4666 
z
" transform="scale(0.015625)"/>
      <path id="DejaVuSans-33" d="M 1259 4147 
L 1259 2394 
L 2053 2394 
Q 2494 2394 2734 2622 
Q 2975 2850 2975 3272 
Q 2975 3691 2734 3919 
Q 2494 4147 2053 4147 
L 1259 4147 
z
M 628 4666 
L 2053 4666 
Q 2838 4666 3239 4311 
Q 3641 3956 3641 3272 
Q 3641 2581 3239 2228 
Q 2838 1875 2053 1875 
L 1259 1875 
L 1259 0 
L 628 0 
L 628 4666 
z
" transform="scale(0.015625)"/>
      <path id="DejaVuSans-37" d="M -19 4666 
L 3928 4666 
L 3928 4134 
L 2272 4134 
L 2272 0 
L 1638 0 
L 1638 4134 
L -19 4134 
L -19 4666 
z
" transform="scale(0.015625)"/>
      <path id="DejaVuSans-10" d="M 313 2009 
L 1997 2009 
L 1997 1497 
L 313 1497 
L 313 2009 
z
" transform="scale(0.015625)"/>
      <path id="DejaVuSans-21" d="M 678 3150 
L 678 3719 
L 4684 2266 
L 4684 1747 
L 678 294 
L 678 863 
L 3897 2003 
L 678 3150 
z
" transform="scale(0.015625)"/>
      <path id="DejaVuSans-36" d="M 3425 4513 
L 3425 3897 
Q 3066 4069 2747 4153 
Q 2428 4238 2131 4238 
Q 1616 4238 1336 4038 
Q 1056 3838 1056 3469 
Q 1056 3159 1242 3001 
Q 1428 2844 1947 2747 
L 2328 2669 
Q 3034 2534 3370 2195 
Q 3706 1856 3706 1288 
Q 3706 609 3251 259 
Q 2797 -91 1919 -91 
Q 1588 -91 1214 -16 
Q 841 59 441 206 
L 441 856 
Q 825 641 1194 531 
Q 1563 422 1919 422 
Q 2459 422 2753 634 
Q 3047 847 3047 1241 
Q 3047 1584 2836 1778 
Q 2625 1972 2144 2069 
L 1759 2144 
Q 1053 2284 737 2584 
Q 422 2884 422 3419 
Q 422 4038 858 4394 
Q 1294 4750 2059 4750 
Q 2388 4750 2728 4690 
Q 3069 4631 3425 4513 
z
" transform="scale(0.015625)"/>
      <path id="DejaVuSans-32" d="M 2522 4238 
Q 1834 4238 1429 3725 
Q 1025 3213 1025 2328 
Q 1025 1447 1429 934 
Q 1834 422 2522 422 
Q 3209 422 3611 934 
Q 4013 1447 4013 2328 
Q 4013 3213 3611 3725 
Q 3209 4238 2522 4238 
z
M 2522 4750 
Q 3503 4750 4090 4092 
Q 4678 3434 4678 2328 
Q 4678 1225 4090 567 
Q 3503 -91 2522 -91 
Q 1538 -91 948 565 
Q 359 1222 359 2328 
Q 359 3434 948 4092 
Q 1538 4750 2522 4750 
z
" transform="scale(0.015625)"/>
      <path id="DejaVuSans-55" d="M 2631 2963 
Q 2534 3019 2420 3045 
Q 2306 3072 2169 3072 
Q 1681 3072 1420 2755 
Q 1159 2438 1159 1844 
L 1159 0 
L 581 0 
L 581 3500 
L 1159 3500 
L 1159 2956 
Q 1341 3275 1631 3429 
Q 1922 3584 2338 3584 
Q 2397 3584 2469 3576 
Q 2541 3569 2628 3553 
L 2631 2963 
z
" transform="scale(0.015625)"/>
      <path id="DejaVuSans-5a" d="M 269 3500 
L 844 3500 
L 1563 769 
L 2278 3500 
L 2956 3500 
L 3675 769 
L 4391 3500 
L 4966 3500 
L 4050 0 
L 3372 0 
L 2619 2869 
L 1863 0 
L 1184 0 
L 269 3500 
z
" transform="scale(0.015625)"/>
      <path id="DejaVuSans-4e" d="M 581 4863 
L 1159 4863 
L 1159 1991 
L 2875 3500 
L 3609 3500 
L 1753 1863 
L 3688 0 
L 2938 0 
L 1159 1709 
L 1159 0 
L 581 0 
L 581 4863 
z
" transform="scale(0.015625)"/>
      <path id="DejaVuSans-59" d="M 191 3500 
L 800 3500 
L 1894 563 
L 2988 3500 
L 3597 3500 
L 2284 0 
L 1503 0 
L 191 3500 
z
" transform="scale(0.015625)"/>
      <path id="DejaVuSans-45" d="M 3116 1747 
Q 3116 2381 2855 2742 
Q 2594 3103 2138 3103 
Q 1681 3103 1420 2742 
Q 1159 2381 1159 1747 
Q 1159 1113 1420 752 
Q 1681 391 2138 391 
Q 2594 391 2855 752 
Q 3116 1113 3116 1747 
z
M 1159 2969 
Q 1341 3281 1617 3432 
Q 1894 3584 2278 3584 
Q 2916 3584 3314 3078 
Q 3713 2572 3713 1747 
Q 3713 922 3314 415 
Q 2916 -91 2278 -91 
Q 1894 -91 1617 61 
Q 1341 213 1159 525 
L 1159 0 
L 581 0 
L 581 4863 
L 1159 4863 
L 1159 2969 
z
" transform="scale(0.015625)"/>
      <path id="DejaVuSans-1e" d="M 750 3309 
L 1409 3309 
L 1409 2516 
L 750 2516 
L 750 3309 
z
M 750 794 
L 1409 794 
L 1409 256 
L 897 -744 
L 494 -744 
L 750 256 
L 750 794 
z
" transform="scale(0.015625)"/>
     </defs>
     <use xlink:href="#DejaVuSans-31"/>
     <use xlink:href="#DejaVuSans-52" transform="translate(74.8125 0)"/>
     <use xlink:href="#DejaVuSans-3" transform="translate(136 0)"/>
     <use xlink:href="#DejaVuSans-4f" transform="translate(167.78125 0)"/>
     <use xlink:href="#DejaVuSans-4c" transform="translate(195.5625 0)"/>
     <use xlink:href="#DejaVuSans-46" transform="translate(223.34375 0)"/>
     <use xlink:href="#DejaVuSans-48" transform="translate(278.328125 0)"/>
     <use xlink:href="#DejaVuSans-51" transform="translate(339.859375 0)"/>
     <use xlink:href="#DejaVuSans-56" transform="translate(403.234375 0)"/>
     <use xlink:href="#DejaVuSans-48" transform="translate(455.328125 0)"/>
     <use xlink:href="#DejaVuSans-47" transform="translate(516.859375 0)"/>
     <use xlink:href="#DejaVuSans-3" transform="translate(580.34375 0)"/>
     <use xlink:href="#DejaVuSans-30" transform="translate(612.125 0)"/>
     <use xlink:href="#DejaVuSans-48" transform="translate(698.40625 0)"/>
     <use xlink:href="#DejaVuSans-47" transform="translate(759.9375 0)"/>
     <use xlink:href="#DejaVuSans-27" transform="translate(823.421875 0)"/>
     <use xlink:href="#DejaVuSans-35" transform="translate(900.421875 0)"/>
     <use xlink:href="#DejaVuSans-24" transform="translate(965.859375 0)"/>
     <use xlink:href="#DejaVuSans-3" transform="translate(1034.265625 0)"/>
     <use xlink:href="#DejaVuSans-33" transform="translate(1066.046875 0)"/>
     <use xlink:href="#DejaVuSans-37" transform="translate(1126.34375 0)"/>
     <use xlink:href="#DejaVuSans-10" transform="translate(1178.25 0)"/>
     <use xlink:href="#DejaVuSans-21" transform="translate(1214.328125 0)"/>
     <use xlink:href="#DejaVuSans-36" transform="translate(1298.125 0)"/>
     <use xlink:href="#DejaVuSans-32" transform="translate(1361.609375 0)"/>
     <use xlink:href="#DejaVuSans-26" transform="translate(1440.328125 0)"/>
     <use xlink:href="#DejaVuSans-3" transform="translate(1510.15625 0)"/>
     <use xlink:href="#DejaVuSans-46" transform="translate(1541.9375 0)"/>
     <use xlink:href="#DejaVuSans-55" transform="translate(1596.921875 0)"/>
     <use xlink:href="#DejaVuSans-52" transform="translate(1635.828125 0)"/>
     <use xlink:href="#DejaVuSans-56" transform="translate(1697.015625 0)"/>
     <use xlink:href="#DejaVuSans-56" transform="translate(1749.109375 0)"/>
     <use xlink:href="#DejaVuSans-5a" transform="translate(1801.203125 0)"/>
     <use xlink:href="#DejaVuSans-44" transform="translate(1882.984375 0)"/>
     <use xlink:href="#DejaVuSans-4f" transform="translate(1944.265625 0)"/>
     <use xlink:href="#DejaVuSans-4e" transform="translate(1972.046875 0)"/>
     <use xlink:href="#DejaVuSans-3" transform="translate(2029.953125 0)"/>
     <use xlink:href="#DejaVuSans-4c" transform="translate(2061.734375 0)"/>
     <use xlink:href="#DejaVuSans-56" transform="translate(2089.515625 0)"/>
     <use xlink:href="#DejaVuSans-3" transform="translate(2141.609375 0)"/>
     <use xlink:href="#DejaVuSans-44" transform="translate(2173.390625 0)"/>
     <use xlink:href="#DejaVuSans-59" transform="translate(2234.671875 0)"/>
     <use xlink:href="#DejaVuSans-44" transform="translate(2293.859375 0)"/>
     <use xlink:href="#DejaVuSans-4c" transform="translate(2355.140625 0)"/>
     <use xlink:href="#DejaVuSans-4f" transform="translate(2382.921875 0)"/>
     <use xlink:href="#DejaVuSans-44" transform="translate(2410.703125 0)"/>
     <use xlink:href="#DejaVuSans-45" transform="translate(2471.984375 0)"/>
     <use xlink:href="#DejaVuSans-4f" transform="translate(2535.46875 0)"/>
     <use xlink:href="#DejaVuSans-48" transform="translate(2563.25 0)"/>
     <use xlink:href="#DejaVuSans-3" transform="translate(2624.78125 0)"/>
     <use xlink:href="#DejaVuSans-b" transform="translate(2656.5625 0)"/>
     <use xlink:href="#DejaVuSans-30" transform="translate(2695.578125 0)"/>
     <use xlink:href="#DejaVuSans-36" transform="translate(2781.859375 0)"/>
     <use xlink:href="#DejaVuSans-36" transform="translate(2845.34375 0)"/>
     <use xlink:href="#DejaVuSans-32" transform="translate(2908.828125 0)"/>
     <use xlink:href="#DejaVuSans-10" transform="translate(2990.328125 0)"/>
     <use xlink:href="#DejaVuSans-4f" transform="translate(3026.40625 0)"/>
     <use xlink:href="#DejaVuSans-4c" transform="translate(3054.1875 0)"/>
     <use xlink:href="#DejaVuSans-46" transform="translate(3081.96875 0)"/>
     <use xlink:href="#DejaVuSans-48" transform="translate(3136.953125 0)"/>
     <use xlink:href="#DejaVuSans-51" transform="translate(3198.484375 0)"/>
     <use xlink:href="#DejaVuSans-56" transform="translate(3261.859375 0)"/>
     <use xlink:href="#DejaVuSans-48" transform="translate(3313.953125 0)"/>
     <use xlink:href="#DejaVuSans-47" transform="translate(3375.484375 0)"/>
     <use xlink:href="#DejaVuSans-1e" transform="translate(3438.96875 0)"/>
    </g>
    <!-- see docs/environment.md). All PTs fall into a single Unmapped bucket. -->
    <g style="fill: #ffffff" transform="translate(116.248359 150.617754) scale(0.09 -0.09)">
     <defs>
      <path id="DejaVuSans-12" d="M 1625 4666 
L 2156 4666 
L 531 -594 
L 0 -594 
L 1625 4666 
z
" transform="scale(0.015625)"/>
      <path id="DejaVuSans-57" d="M 1172 4494 
L 1172 3500 
L 2356 3500 
L 2356 3053 
L 1172 3053 
L 1172 1153 
Q 1172 725 1289 603 
Q 1406 481 1766 481 
L 2356 481 
L 2356 0 
L 1766 0 
Q 1100 0 847 248 
Q 594 497 594 1153 
L 594 3053 
L 172 3053 
L 172 3500 
L 594 3500 
L 594 4494 
L 1172 4494 
z
" transform="scale(0.015625)"/>
      <path id="DejaVuSans-11" d="M 684 794 
L 1344 794 
L 1344 0 
L 684 0 
L 684 794 
z
" transform="scale(0.015625)"/>
      <path id="DejaVuSans-49" d="M 2375 4863 
L 2375 4384 
L 1825 4384 
Q 1516 4384 1395 4259 
Q 1275 4134 1275 3809 
L 1275 3500 
L 2222 3500 
L 2222 3053 
L 1275 3053 
L 1275 0 
L 697 0 
L 697 3053 
L 147 3053 
L 147 3500 
L 697 3500 
L 697 3744 
Q 697 4328 969 4595 
Q 1241 4863 1831 4863 
L 2375 4863 
z
" transform="scale(0.015625)"/>
     </defs>
     <use xlink:href="#DejaVuSans-56"/>
     <use xlink:href="#DejaVuSans-48" transform="translate(52.09375 0)"/>
     <use xlink:href="#DejaVuSans-48" transform="translate(113.625 0)"/>
     <use xlink:href="#DejaVuSans-3" transform="translate(175.15625 0)"/>
     <use xlink:href="#DejaVuSans-47" transform="translate(206.9375 0)"/>
     <use xlink:href="#DejaVuSans-52" transform="translate(270.421875 0)"/>
     <use xlink:href="#DejaVuSans-46" transform="translate(331.609375 0)"/>
     <use xlink:href="#DejaVuSans-56" transform="translate(386.59375 0)"/>
     <use xlink:href="#DejaVuSans-12" transform="translate(438.6875 0)"/>
     <use xlink:href="#DejaVuSans-48" transform="translate(472.375 0)"/>
     <use xlink:href="#DejaVuSans-51" transform="translate(533.90625 0)"/>
     <use xlink:href="#DejaVuSans-59" transform="translate(597.28125 0)"/>
     <use xlink:href="#DejaVuSans-4c" transform="translate(656.46875 0)"/>
     <use xlink:href="#DejaVuSans-55" transform="translate(684.25 0)"/>
     <use xlink:href="#DejaVuSans-52" transform="translate(723.15625 0)"/>
     <use xlink:href="#DejaVuSans-51" transform="translate(784.34375 0)"/>
     <use xlink:href="#DejaVuSans-50" transform="translate(847.71875 0)"/>
     <use xlink:href="#DejaVuSans-48" transform="translate(945.125 0)"/>
     <use xlink:href="#DejaVuSans-51" transform="translate(1006.65625 0)"/>
     <use xlink:href="#DejaVuSans-57" transform="translate(1070.03125 0)"/>
     <use xlink:href="#DejaVuSans-11" transform="translate(1109.234375 0)"/>
     <use xlink:href="#DejaVuSans-50" transform="translate(1141.015625 0)"/>
     <use xlink:href="#DejaVuSans-47" transform="translate(1238.421875 0)"/>
     <use xlink:href="#DejaVuSans-c" transform="translate(1301.90625 0)"/>
     <use xlink:href="#DejaVuSans-11" transform="translate(1340.921875 0)"/>
     <use xlink:href="#DejaVuSans-3" transform="translate(1372.703125 0)"/>
     <use xlink:href="#DejaVuSans-24" transform="translate(1404.484375 0)"/>
     <use xlink:href="#DejaVuSans-4f" transform="translate(1472.890625 0)"/>
     <use xlink:href="#DejaVuSans-4f" transform="translate(1500.671875 0)"/>
     <use xlink:href="#DejaVuSans-3" transform="translate(1528.453125 0)"/>
     <use xlink:href="#DejaVuSans-33" transform="translate(1560.234375 0)"/>
     <use xlink:href="#DejaVuSans-37" transform="translate(1620.53125 0)"/>
     <use xlink:href="#DejaVuSans-56" transform="translate(1665.0625 0)"/>
     <use xlink:href="#DejaVuSans-3" transform="translate(1717.15625 0)"/>
     <use xlink:href="#DejaVuSans-49" transform="translate(1748.9375 0)"/>
     <use xlink:href="#DejaVuSans-44" transform="translate(1784.140625 0)"/>
     <use xlink:href="#DejaVuSans-4f" transform="translate(1845.421875 0)"/>
     <use xlink:href="#DejaVuSans-4f" transform="translate(1873.203125 0)"/>
     <use xlink:href="#DejaVuSans-3" transform="translate(1900.984375 0)"/>
     <use xlink:href="#DejaVuSans-4c" transform="translate(1932.765625 0)"/>
     <use xlink:href="#DejaVuSans-51" transform="translate(1960.546875 0)"/>
     <use xlink:href="#DejaVuSans-57" transform="translate(2023.921875 0)"/>
     <use xlink:href="#DejaVuSans-52" transform="translate(2063.125 0)"/>
     <use xlink:href="#DejaVuSans-3" transform="translate(2124.3125 0)"/>
     <use xlink:href="#DejaVuSans-44" transform="translate(2156.09375 0)"/>
     <use xlink:href="#DejaVuSans-3" transform="translate(2217.375 0)"/>
     <use xlink:href="#DejaVuSans-56" transform="translate(2249.15625 0)"/>
     <use xlink:href="#DejaVuSans-4c" transform="translate(2301.25 0)"/>
     <use xlink:href="#DejaVuSans-51" transform="translate(2329.03125 0)"/>
     <use xlink:href="#DejaVuSans-4a" transform="translate(2392.40625 0)"/>
     <use xlink:href="#DejaVuSans-4f" transform="translate(2455.890625 0)"/>
     <use xlink:href="#DejaVuSans-48" transform="translate(2483.671875 0)"/>
     <use xlink:href="#DejaVuSans-3" transform="translate(2545.203125 0)"/>
     <use xlink:href="#DejaVuSans-38" transform="translate(2576.984375 0)"/>
     <use xlink:href="#DejaVuSans-51" transform="translate(2650.171875 0)"/>
     <use xlink:href="#DejaVuSans-50" transform="translate(2713.546875 0)"/>
     <use xlink:href="#DejaVuSans-44" transform="translate(2810.953125 0)"/>
     <use xlink:href="#DejaVuSans-53" transform="translate(2872.234375 0)"/>
     <use xlink:href="#DejaVuSans-53" transform="translate(2935.71875 0)"/>
     <use xlink:href="#DejaVuSans-48" transform="translate(2999.203125 0)"/>
     <use xlink:href="#DejaVuSans-47" transform="translate(3060.734375 0)"/>
     <use xlink:href="#DejaVuSans-3" transform="translate(3124.21875 0)"/>
     <use xlink:href="#DejaVuSans-45" transform="translate(3156 0)"/>
     <use xlink:href="#DejaVuSans-58" transform="translate(3219.484375 0)"/>
     <use xlink:href="#DejaVuSans-46" transform="translate(3282.859375 0)"/>
     <use xlink:href="#DejaVuSans-4e" transform="translate(3337.84375 0)"/>
     <use xlink:href="#DejaVuSans-48" transform="translate(3392.1875 0)"/>
     <use xlink:href="#DejaVuSans-57" transform="translate(3453.71875 0)"/>
     <use xlink:href="#DejaVuSans-11" transform="translate(3492.921875 0)"/>
    </g>
   </g>
   <g id="text_10">
    <!-- F1. Consensus signals by MedDRA System Organ Class -->
    <g style="fill: #0b0b0b" transform="translate(79.56 29.958281) scale(0.11 -0.11)">
     <defs>
      <path id="DejaVuSans-29" d="M 628 4666 
L 3309 4666 
L 3309 4134 
L 1259 4134 
L 1259 2759 
L 3109 2759 
L 3109 2228 
L 1259 2228 
L 1259 0 
L 628 0 
L 628 4666 
z
" transform="scale(0.015625)"/>
      <path id="DejaVuSans-14" d="M 794 531 
L 1825 531 
L 1825 4091 
L 703 3866 
L 703 4441 
L 1819 4666 
L 2450 4666 
L 2450 531 
L 3481 531 
L 3481 0 
L 794 0 
L 794 531 
z
" transform="scale(0.015625)"/>
      <path id="DejaVuSans-5c" d="M 2059 -325 
Q 1816 -950 1584 -1140 
Q 1353 -1331 966 -1331 
L 506 -1331 
L 506 -850 
L 844 -850 
Q 1081 -850 1212 -737 
Q 1344 -625 1503 -206 
L 1606 56 
L 191 3500 
L 800 3500 
L 1894 763 
L 2988 3500 
L 3597 3500 
L 2059 -325 
z
" transform="scale(0.015625)"/>
     </defs>
     <use xlink:href="#DejaVuSans-29"/>
     <use xlink:href="#DejaVuSans-14" transform="translate(57.515625 0)"/>
     <use xlink:href="#DejaVuSans-11" transform="translate(121.140625 0)"/>
     <use xlink:href="#DejaVuSans-3" transform="translate(152.921875 0)"/>
     <use xlink:href="#DejaVuSans-26" transform="translate(184.703125 0)"/>
     <use xlink:href="#DejaVuSans-52" transform="translate(254.53125 0)"/>
     <use xlink:href="#DejaVuSans-51" transform="translate(315.71875 0)"/>
     <use xlink:href="#DejaVuSans-56" transform="translate(379.09375 0)"/>
     <use xlink:href="#DejaVuSans-48" transform="translate(431.1875 0)"/>
     <use xlink:href="#DejaVuSans-51" transform="translate(492.71875 0)"/>
     <use xlink:href="#DejaVuSans-56" transform="translate(556.09375 0)"/>
     <use xlink:href="#DejaVuSans-58" transform="translate(608.1875 0)"/>
     <use xlink:href="#DejaVuSans-56" transform="translate(671.5625 0)"/>
     <use xlink:href="#DejaVuSans-3" transform="translate(723.65625 0)"/>
     <use xlink:href="#DejaVuSans-56" transform="translate(755.4375 0)"/>
     <use xlink:href="#DejaVuSans-4c" transform="translate(807.53125 0)"/>
     <use xlink:href="#DejaVuSans-4a" transform="translate(835.3125 0)"/>
     <use xlink:href="#DejaVuSans-51" transform="translate(898.796875 0)"/>
     <use xlink:href="#DejaVuSans-44" transform="translate(962.171875 0)"/>
     <use xlink:href="#DejaVuSans-4f" transform="translate(1023.453125 0)"/>
     <use xlink:href="#DejaVuSans-56" transform="translate(1051.234375 0)"/>
     <use xlink:href="#DejaVuSans-3" transform="translate(1103.328125 0)"/>
     <use xlink:href="#DejaVuSans-45" transform="translate(1135.109375 0)"/>
     <use xlink:href="#DejaVuSans-5c" transform="translate(1198.59375 0)"/>
     <use xlink:href="#DejaVuSans-3" transform="translate(1257.78125 0)"/>
     <use xlink:href="#DejaVuSans-30" transform="translate(1289.5625 0)"/>
     <use xlink:href="#DejaVuSans-48" transform="translate(1375.84375 0)"/>
     <use xlink:href="#DejaVuSans-47" transform="translate(1437.375 0)"/>
     <use xlink:href="#DejaVuSans-27" transform="translate(1500.859375 0)"/>
     <use xlink:href="#DejaVuSans-35" transform="translate(1577.859375 0)"/>
     <use xlink:href="#DejaVuSans-24" transform="translate(1643.296875 0)"/>
     <use xlink:href="#DejaVuSans-3" transform="translate(1711.703125 0)"/>
     <use xlink:href="#DejaVuSans-36" transform="translate(1743.484375 0)"/>
     <use xlink:href="#DejaVuSans-5c" transform="translate(1806.96875 0)"/>
     <use xlink:href="#DejaVuSans-56" transform="translate(1866.15625 0)"/>
     <use xlink:href="#DejaVuSans-57" transform="translate(1918.25 0)"/>
     <use xlink:href="#DejaVuSans-48" transform="translate(1957.453125 0)"/>
     <use xlink:href="#DejaVuSans-50" transform="translate(2018.984375 0)"/>
     <use xlink:href="#DejaVuSans-3" transform="translate(2116.390625 0)"/>
     <use xlink:href="#DejaVuSans-32" transform="translate(2148.171875 0)"/>
     <use xlink:href="#DejaVuSans-55" transform="translate(2226.890625 0)"/>
     <use xlink:href="#DejaVuSans-4a" transform="translate(2266.25 0)"/>
     <use xlink:href="#DejaVuSans-44" transform="translate(2329.734375 0)"/>
     <use xlink:href="#DejaVuSans-51" transform="translate(2391.015625 0)"/>
     <use xlink:href="#DejaVuSans-3" transform="translate(2454.390625 0)"/>
     <use xlink:href="#DejaVuSans-26" transform="translate(2486.171875 0)"/>
     <use xlink:href="#DejaVuSans-4f" transform="translate(2556 0)"/>
     <use xlink:href="#DejaVuSans-44" transform="translate(2583.78125 0)"/>
     <use xlink:href="#DejaVuSans-56" transform="translate(2645.0625 0)"/>
     <use xlink:href="#DejaVuSans-56" transform="translate(2697.15625 0)"/>
    </g>
   </g>
  </g>
  <g id="text_11">
   <!-- F1. N=416 cases, datopotamab deruxtecan Primary Suspect, FAERS 2025Q1-2026Q1. SOC rollup of the 8 primary consensus-signal PTs from scripts/05. -->
   <g style="fill: #52514e" transform="translate(21.6 313.036758) scale(0.065 -0.065)">
    <defs>
     <path id="DejaVuSans-20" d="M 678 2906 
L 4684 2906 
L 4684 2381 
L 678 2381 
L 678 2906 
z
M 678 1631 
L 4684 1631 
L 4684 1100 
L 678 1100 
L 678 1631 
z
" transform="scale(0.015625)"/>
     <path id="DejaVuSans-f" d="M 750 794 
L 1409 794 
L 1409 256 
L 897 -744 
L 494 -744 
L 750 256 
L 750 794 
z
" transform="scale(0.015625)"/>
     <path id="DejaVuSans-5b" d="M 3513 3500 
L 2247 1797 
L 3578 0 
L 2900 0 
L 1881 1375 
L 863 0 
L 184 0 
L 1544 1831 
L 300 3500 
L 978 3500 
L 1906 2253 
L 2834 3500 
L 3513 3500 
z
" transform="scale(0.015625)"/>
     <path id="DejaVuSans-28" d="M 628 4666 
L 3578 4666 
L 3578 4134 
L 1259 4134 
L 1259 2753 
L 3481 2753 
L 3481 2222 
L 1259 2222 
L 1259 531 
L 3634 531 
L 3634 0 
L 628 0 
L 628 4666 
z
" transform="scale(0.015625)"/>
     <path id="DejaVuSans-18" d="M 691 4666 
L 3169 4666 
L 3169 4134 
L 1269 4134 
L 1269 2991 
Q 1406 3038 1543 3061 
Q 1681 3084 1819 3084 
Q 2600 3084 3056 2656 
Q 3513 2228 3513 1497 
Q 3513 744 3044 326 
Q 2575 -91 1722 -91 
Q 1428 -91 1123 -41 
Q 819 9 494 109 
L 494 744 
Q 775 591 1075 516 
Q 1375 441 1709 441 
Q 2250 441 2565 725 
Q 2881 1009 2881 1497 
Q 2881 1984 2565 2268 
Q 2250 2553 1709 2553 
Q 1456 2553 1204 2497 
Q 953 2441 691 2322 
L 691 4666 
z
" transform="scale(0.015625)"/>
     <path id="DejaVuSans-34" d="M 2522 4238 
Q 1834 4238 1429 3725 
Q 1025 3213 1025 2328 
Q 1025 1447 1429 934 
Q 1834 422 2522 422 
Q 3209 422 3611 934 
Q 4013 1447 4013 2328 
Q 4013 3213 3611 3725 
Q 3209 4238 2522 4238 
z
M 3406 84 
L 4238 -825 
L 3475 -825 
L 2784 -78 
Q 2681 -84 2626 -87 
Q 2572 -91 2522 -91 
Q 1538 -91 948 567 
Q 359 1225 359 2328 
Q 359 3434 948 4092 
Q 1538 4750 2522 4750 
Q 3503 4750 4090 4092 
Q 4678 3434 4678 2328 
Q 4678 1516 4351 937 
Q 4025 359 3406 84 
z
" transform="scale(0.015625)"/>
     <path id="DejaVuSans-4b" d="M 3513 2113 
L 3513 0 
L 2938 0 
L 2938 2094 
Q 2938 2591 2744 2837 
Q 2550 3084 2163 3084 
Q 1697 3084 1428 2787 
Q 1159 2491 1159 1978 
L 1159 0 
L 581 0 
L 581 4863 
L 1159 4863 
L 1159 2956 
Q 1366 3272 1645 3428 
Q 1925 3584 2291 3584 
Q 2894 3584 3203 3211 
Q 3513 2838 3513 2113 
z
" transform="scale(0.015625)"/>
    </defs>
    <use xlink:href="#DejaVuSans-29"/>
    <use xlink:href="#DejaVuSans-14" transform="translate(57.515625 0)"/>
    <use xlink:href="#DejaVuSans-11" transform="translate(121.140625 0)"/>
    <use xlink:href="#DejaVuSans-3" transform="translate(152.921875 0)"/>
    <use xlink:href="#DejaVuSans-31" transform="translate(184.703125 0)"/>
    <use xlink:href="#DejaVuSans-20" transform="translate(259.515625 0)"/>
    <use xlink:href="#DejaVuSans-17" transform="translate(343.3125 0)"/>
    <use xlink:href="#DejaVuSans-14" transform="translate(406.9375 0)"/>
    <use xlink:href="#DejaVuSans-19" transform="translate(470.5625 0)"/>
    <use xlink:href="#DejaVuSans-3" transform="translate(534.1875 0)"/>
    <use xlink:href="#DejaVuSans-46" transform="translate(565.96875 0)"/>
    <use xlink:href="#DejaVuSans-44" transform="translate(620.953125 0)"/>
    <use xlink:href="#DejaVuSans-56" transform="translate(682.234375 0)"/>
    <use xlink:href="#DejaVuSans-48" transform="translate(734.328125 0)"/>
    <use xlink:href="#DejaVuSans-56" transform="translate(795.859375 0)"/>
    <use xlink:href="#DejaVuSans-f" transform="translate(847.953125 0)"/>
    <use xlink:href="#DejaVuSans-3" transform="translate(879.734375 0)"/>
    <use xlink:href="#DejaVuSans-47" transform="translate(911.515625 0)"/>
    <use xlink:href="#DejaVuSans-44" transform="translate(975 0)"/>
    <use xlink:href="#DejaVuSans-57" transform="translate(1036.28125 0)"/>
    <use xlink:href="#DejaVuSans-52" transform="translate(1075.484375 0)"/>
    <use xlink:href="#DejaVuSans-53" transform="translate(1136.671875 0)"/>
    <use xlink:href="#DejaVuSans-52" transform="translate(1200.15625 0)"/>
    <use xlink:href="#DejaVuSans-57" transform="translate(1261.34375 0)"/>
    <use xlink:href="#DejaVuSans-44" transform="translate(1300.546875 0)"/>
    <use xlink:href="#DejaVuSans-50" transform="translate(1361.828125 0)"/>
    <use xlink:href="#DejaVuSans-44" transform="translate(1459.234375 0)"/>
    <use xlink:href="#DejaVuSans-45" transform="translate(1520.515625 0)"/>
    <use xlink:href="#DejaVuSans-3" transform="translate(1584 0)"/>
    <use xlink:href="#DejaVuSans-47" transform="translate(1615.78125 0)"/>
    <use xlink:href="#DejaVuSans-48" transform="translate(1679.265625 0)"/>
    <use xlink:href="#DejaVuSans-55" transform="translate(1740.796875 0)"/>
    <use xlink:href="#DejaVuSans-58" transform="translate(1781.90625 0)"/>
    <use xlink:href="#DejaVuSans-5b" transform="translate(1845.28125 0)"/>
    <use xlink:href="#DejaVuSans-57" transform="translate(1904.46875 0)"/>
    <use xlink:href="#DejaVuSans-48" transform="translate(1943.671875 0)"/>
    <use xlink:href="#DejaVuSans-46" transform="translate(2005.203125 0)"/>
    <use xlink:href="#DejaVuSans-44" transform="translate(2060.1875 0)"/>
    <use xlink:href="#DejaVuSans-51" transform="translate(2121.46875 0)"/>
    <use xlink:href="#DejaVuSans-3" transform="translate(2184.84375 0)"/>
    <use xlink:href="#DejaVuSans-33" transform="translate(2216.625 0)"/>
    <use xlink:href="#DejaVuSans-55" transform="translate(2275.171875 0)"/>
    <use xlink:href="#DejaVuSans-4c" transform="translate(2316.28125 0)"/>
    <use xlink:href="#DejaVuSans-50" transform="translate(2344.0625 0)"/>
    <use xlink:href="#DejaVuSans-44" transform="translate(2441.46875 0)"/>
    <use xlink:href="#DejaVuSans-55" transform="translate(2502.75 0)"/>
    <use xlink:href="#DejaVuSans-5c" transform="translate(2543.859375 0)"/>
    <use xlink:href="#DejaVuSans-3" transform="translate(2603.046875 0)"/>
    <use xlink:href="#DejaVuSans-36" transform="translate(2634.828125 0)"/>
    <use xlink:href="#DejaVuSans-58" transform="translate(2698.3125 0)"/>
    <use xlink:href="#DejaVuSans-56" transform="translate(2761.6875 0)"/>
    <use xlink:href="#DejaVuSans-53" transform="translate(2813.78125 0)"/>
    <use xlink:href="#DejaVuSans-48" transform="translate(2877.265625 0)"/>
    <use xlink:href="#DejaVuSans-46" transform="translate(2938.796875 0)"/>
    <use xlink:href="#DejaVuSans-57" transform="translate(2993.78125 0)"/>
    <use xlink:href="#DejaVuSans-f" transform="translate(3032.984375 0)"/>
    <use xlink:href="#DejaVuSans-3" transform="translate(3064.765625 0)"/>
    <use xlink:href="#DejaVuSans-29" transform="translate(3096.546875 0)"/>
    <use xlink:href="#DejaVuSans-24" transform="translate(3144.890625 0)"/>
    <use xlink:href="#DejaVuSans-28" transform="translate(3213.296875 0)"/>
    <use xlink:href="#DejaVuSans-35" transform="translate(3276.484375 0)"/>
    <use xlink:href="#DejaVuSans-36" transform="translate(3345.96875 0)"/>
    <use xlink:href="#DejaVuSans-3" transform="translate(3409.453125 0)"/>
    <use xlink:href="#DejaVuSans-15" transform="translate(3441.234375 0)"/>
    <use xlink:href="#DejaVuSans-13" transform="translate(3504.859375 0)"/>
    <use xlink:href="#DejaVuSans-15" transform="translate(3568.484375 0)"/>
    <use xlink:href="#DejaVuSans-18" transform="translate(3632.109375 0)"/>
    <use xlink:href="#DejaVuSans-34" transform="translate(3695.734375 0)"/>
    <use xlink:href="#DejaVuSans-14" transform="translate(3774.453125 0)"/>
    <use xlink:href="#DejaVuSans-10" transform="translate(3838.078125 0)"/>
    <use xlink:href="#DejaVuSans-15" transform="translate(3874.15625 0)"/>
    <use xlink:href="#DejaVuSans-13" transform="translate(3937.78125 0)"/>
    <use xlink:href="#DejaVuSans-15" transform="translate(4001.40625 0)"/>
    <use xlink:href="#DejaVuSans-19" transform="translate(4065.03125 0)"/>
    <use xlink:href="#DejaVuSans-34" transform="translate(4128.65625 0)"/>
    <use xlink:href="#DejaVuSans-14" transform="translate(4207.375 0)"/>
    <use xlink:href="#DejaVuSans-11" transform="translate(4271 0)"/>
    <use xlink:href="#DejaVuSans-3" transform="translate(4302.78125 0)"/>
    <use xlink:href="#DejaVuSans-36" transform="translate(4334.5625 0)"/>
    <use xlink:href="#DejaVuSans-32" transform="translate(4398.046875 0)"/>
    <use xlink:href="#DejaVuSans-26" transform="translate(4476.765625 0)"/>
    <use xlink:href="#DejaVuSans-3" transform="translate(4546.59375 0)"/>
    <use xlink:href="#DejaVuSans-55" transform="translate(4578.375 0)"/>
    <use xlink:href="#DejaVuSans-52" transform="translate(4617.28125 0)"/>
    <use xlink:href="#DejaVuSans-4f" transform="translate(4678.46875 0)"/>
    <use xlink:href="#DejaVuSans-4f" transform="translate(4706.25 0)"/>
    <use xlink:href="#DejaVuSans-58" transform="translate(4734.03125 0)"/>
    <use xlink:href="#DejaVuSans-53" transform="translate(4797.40625 0)"/>
    <use xlink:href="#DejaVuSans-3" transform="translate(4860.890625 0)"/>
    <use xlink:href="#DejaVuSans-52" transform="translate(4892.671875 0)"/>
    <use xlink:href="#DejaVuSans-49" transform="translate(4953.859375 0)"/>
    <use xlink:href="#DejaVuSans-3" transform="translate(4989.0625 0)"/>
    <use xlink:href="#DejaVuSans-57" transform="translate(5020.84375 0)"/>
    <use xlink:href="#DejaVuSans-4b" transform="translate(5060.046875 0)"/>
    <use xlink:href="#DejaVuSans-48" transform="translate(5123.421875 0)"/>
    <use xlink:href="#DejaVuSans-3" transform="translate(5184.953125 0)"/>
    <use xlink:href="#DejaVuSans-1b" transform="translate(5216.734375 0)"/>
    <use xlink:href="#DejaVuSans-3" transform="translate(5280.359375 0)"/>
    <use xlink:href="#DejaVuSans-53" transform="translate(5312.140625 0)"/>
    <use xlink:href="#DejaVuSans-55" transform="translate(5375.625 0)"/>
    <use xlink:href="#DejaVuSans-4c" transform="translate(5416.734375 0)"/>
    <use xlink:href="#DejaVuSans-50" transform="translate(5444.515625 0)"/>
    <use xlink:href="#DejaVuSans-44" transform="translate(5541.921875 0)"/>
    <use xlink:href="#DejaVuSans-55" transform="translate(5603.203125 0)"/>
    <use xlink:href="#DejaVuSans-5c" transform="translate(5644.3125 0)"/>
    <use xlink:href="#DejaVuSans-3" transform="translate(5703.5 0)"/>
    <use xlink:href="#DejaVuSans-46" transform="translate(5735.28125 0)"/>
    <use xlink:href="#DejaVuSans-52" transform="translate(5790.265625 0)"/>
    <use xlink:href="#DejaVuSans-51" transform="translate(5851.453125 0)"/>
    <use xlink:href="#DejaVuSans-56" transform="translate(5914.828125 0)"/>
    <use xlink:href="#DejaVuSans-48" transform="translate(5966.921875 0)"/>
    <use xlink:href="#DejaVuSans-51" transform="translate(6028.453125 0)"/>
    <use xlink:href="#DejaVuSans-56" transform="translate(6091.828125 0)"/>
    <use xlink:href="#DejaVuSans-58" transform="translate(6143.921875 0)"/>
    <use xlink:href="#DejaVuSans-56" transform="translate(6207.296875 0)"/>
    <use xlink:href="#DejaVuSans-10" transform="translate(6259.390625 0)"/>
    <use xlink:href="#DejaVuSans-56" transform="translate(6295.46875 0)"/>
    <use xlink:href="#DejaVuSans-4c" transform="translate(6347.5625 0)"/>
    <use xlink:href="#DejaVuSans-4a" transform="translate(6375.34375 0)"/>
    <use xlink:href="#DejaVuSans-51" transform="translate(6438.828125 0)"/>
    <use xlink:href="#DejaVuSans-44" transform="translate(6502.203125 0)"/>
    <use xlink:href="#DejaVuSans-4f" transform="translate(6563.484375 0)"/>
    <use xlink:href="#DejaVuSans-3" transform="translate(6591.265625 0)"/>
    <use xlink:href="#DejaVuSans-33" transform="translate(6623.046875 0)"/>
    <use xlink:href="#DejaVuSans-37" transform="translate(6683.34375 0)"/>
    <use xlink:href="#DejaVuSans-56" transform="translate(6727.875 0)"/>
    <use xlink:href="#DejaVuSans-3" transform="translate(6779.96875 0)"/>
    <use xlink:href="#DejaVuSans-49" transform="translate(6811.75 0)"/>
    <use xlink:href="#DejaVuSans-55" transform="translate(6846.953125 0)"/>
    <use xlink:href="#DejaVuSans-52" transform="translate(6885.859375 0)"/>
    <use xlink:href="#DejaVuSans-50" transform="translate(6947.046875 0)"/>
    <use xlink:href="#DejaVuSans-3" transform="translate(7044.453125 0)"/>
    <use xlink:href="#DejaVuSans-56" transform="translate(7076.234375 0)"/>
    <use xlink:href="#DejaVuSans-46" transform="translate(7128.328125 0)"/>
    <use xlink:href="#DejaVuSans-55" transform="translate(7183.3125 0)"/>
    <use xlink:href="#DejaVuSans-4c" transform="translate(7224.421875 0)"/>
    <use xlink:href="#DejaVuSans-53" transform="translate(7252.203125 0)"/>
    <use xlink:href="#DejaVuSans-57" transform="translate(7315.6875 0)"/>
    <use xlink:href="#DejaVuSans-56" transform="translate(7354.890625 0)"/>
    <use xlink:href="#DejaVuSans-12" transform="translate(7406.984375 0)"/>
    <use xlink:href="#DejaVuSans-13" transform="translate(7440.671875 0)"/>
    <use xlink:href="#DejaVuSans-18" transform="translate(7504.296875 0)"/>
    <use xlink:href="#DejaVuSans-11" transform="translate(7567.921875 0)"/>
   </g>
  </g>
 </g>
 <defs>
  <clipPath id="p5b30633ef8">
   <rect x="79.56" y="35.958281" width="390.6" height="213.84"/>
  </clipPath>
 </defs>
</svg>
