<?xml version="1.0" encoding="utf-8" standalone="no"?>
<!DOCTYPE svg PUBLIC "-//W3C//DTD SVG 1.1//EN"
  "http://www.w3.org/Graphics/SVG/1.1/DTD/svg11.dtd">
<svg xmlns:xlink="http://www.w3.org/1999/xlink" width="525.942812pt" height="336.198281pt" viewBox="0 0 525.942812 336.198281" xmlns="http://www.w3.org/2000/svg" version="1.1">
 <metadata>
  <rdf:RDF xmlns:dc="http://purl.org/dc/elements/1.1/" xmlns:cc="http://creativecommons.org/ns#" xmlns:rdf="http://www.w3.org/1999/02/22-rdf-syntax-ns#">
   <cc:Work>
    <dc:type rdf:resource="http://purl.org/dc/dcmitype/StillImage"/>
    <dc:date>2026-07-08T23:03:16.813274</dc:date>
    <dc:format>image/svg+xml</dc:format>
    <dc:creator>
     <cc:Agent>
      <dc:title>Matplotlib v3.11.0, https://matplotlib.org/</dc:title>
     </cc:Agent>
    </dc:creator>
   </cc:Work>
  </rdf:RDF>
 </metadata>
 <defs>
  <style type="text/css">*{stroke-linejoin: round; stroke-linecap: butt}</style>
 </defs>
 <g id="figure_1">
  <g id="patch_1">
   <path d="M 0 336.198281 
L 525.942812 336.198281 
L 525.942812 0 
L 0 0 
z
" style="fill: #ffffff"/>
  </g>
  <g id="axes_1">
   <g id="patch_2">
    <path d="M 79.56 249.798281 
L 470.16 249.798281 
L 470.16 35.958281 
L 79.56 35.958281 
z
" style="fill: #ffffff"/>
   </g>
   <g id="matplotlib.axis_1">
    <g id="xtick_1">
     <g id="line2d_1">
      <path d="M 96.512986 249.798281 
L 96.512986 35.958281 
" clip-path="url(#p46503fdf3c)" style="fill: none; stroke: #e1e0d9; stroke-width: 0.6; stroke-linecap: square"/>
     </g>
     <g id="line2d_2">
      <defs>
       <path id="m4af38747fd" d="M 0 0 
L 0 3.5 
" style="stroke: #52514e; stroke-width: 0.8"/>
      </defs>
      <g>
       <use xlink:href="#m4af38747fd" x="96.512986" y="249.798281" style="fill: #52514e; stroke: #52514e; stroke-width: 0.8"/>
      </g>
     </g>
     <g id="text_1">
      <!-- 0 -->
      <g style="fill: #52514e" transform="translate(93.331736 264.395938) scale(0.1 -0.1)">
       <defs>
        <path id="DejaVuSans-13" d="M 2034 4250 
Q 1547 4250 1301 3770 
Q 1056 3291 1056 2328 
Q 1056 1369 1301 889 
Q 1547 409 2034 409 
Q 2525 409 2770 889 
Q 3016 1369 3016 2328 
Q 3016 3291 2770 3770 
Q 2525 4250 2034 4250 
z
M 2034 4750 
Q 2819 4750 3233 4129 
Q 3647 3509 3647 2328 
Q 3647 1150 3233 529 
Q 2819 -91 2034 -91 
Q 1250 -91 836 529 
Q 422 1150 422 2328 
Q 422 3509 836 4129 
Q 1250 4750 2034 4750 
z
" transform="scale(0.015625)"/>
       </defs>
       <use xlink:href="#DejaVuSans-13"/>
      </g>
     </g>
    </g>
    <g id="xtick_2">
     <g id="line2d_3">
      <path d="M 176.668947 249.798281 
L 176.668947 35.958281 
" clip-path="url(#p46503fdf3c)" style="fill: none; stroke: #e1e0d9; stroke-width: 0.6; stroke-linecap: square"/>
     </g>
     <g id="line2d_4">
      <g>
       <use xlink:href="#m4af38747fd" x="176.668947" y="249.798281" style="fill: #52514e; stroke: #52514e; stroke-width: 0.8"/>
      </g>
     </g>
     <g id="text_2">
      <!-- 50 -->
      <g style="fill: #52514e" transform="translate(170.306447 264.395938) scale(0.1 -0.1)">
       <defs>
        <path id="DejaVuSans-18" d="M 691 4666 
L 3169 4666 
L 3169 4134 
L 1269 4134 
L 1269 2991 
Q 1406 3038 1543 3061 
Q 1681 3084 1819 3084 
Q 2600 3084 3056 2656 
Q 3513 2228 3513 1497 
Q 3513 744 3044 326 
Q 2575 -91 1722 -91 
Q 1428 -91 1123 -41 
Q 819 9 494 109 
L 494 744 
Q 775 591 1075 516 
Q 1375 441 1709 441 
Q 2250 441 2565 725 
Q 2881 1009 2881 1497 
Q 2881 1984 2565 2268 
Q 2250 2553 1709 2553 
Q 1456 2553 1204 2497 
Q 953 2441 691 2322 
L 691 4666 
z
" transform="scale(0.015625)"/>
       </defs>
       <use xlink:href="#DejaVuSans-18"/>
       <use xlink:href="#DejaVuSans-13" transform="translate(63.625 0)"/>
      </g>
     </g>
    </g>
    <g id="xtick_3">
     <g id="line2d_5">
      <path d="M 256.824909 249.798281 
L 256.824909 35.958281 
" clip-path="url(#p46503fdf3c)" style="fill: none; stroke: #e1e0d9; stroke-width: 0.6; stroke-linecap: square"/>
     </g>
     <g id="line2d_6">
      <g>
       <use xlink:href="#m4af38747fd" x="256.824909" y="249.798281" style="fill: #52514e; stroke: #52514e; stroke-width: 0.8"/>
      </g>
     </g>
     <g id="text_3">
      <!-- 100 -->
      <g style="fill: #52514e" transform="translate(247.281159 264.395938) scale(0.1 -0.1)">
       <defs>
        <path id="DejaVuSans-14" d="M 794 531 
L 1825 531 
L 1825 4091 
L 703 3866 
L 703 4441 
L 1819 4666 
L 2450 4666 
L 2450 531 
L 3481 531 
L 3481 0 
L 794 0 
L 794 531 
z
" transform="scale(0.015625)"/>
       </defs>
       <use xlink:href="#DejaVuSans-14"/>
       <use xlink:href="#DejaVuSans-13" transform="translate(63.625 0)"/>
       <use xlink:href="#DejaVuSans-13" transform="translate(127.25 0)"/>
      </g>
     </g>
    </g>
    <g id="xtick_4">
     <g id="line2d_7">
      <path d="M 336.98087 249.798281 
L 336.98087 35.958281 
" clip-path="url(#p46503fdf3c)" style="fill: none; stroke: #e1e0d9; stroke-width: 0.6; stroke-linecap: square"/>
     </g>
     <g id="line2d_8">
      <g>
       <use xlink:href="#m4af38747fd" x="336.98087" y="249.798281" style="fill: #52514e; stroke: #52514e; stroke-width: 0.8"/>
      </g>
     </g>
     <g id="text_4">
      <!-- 150 -->
      <g style="fill: #52514e" transform="translate(327.43712 264.395938) scale(0.1 -0.1)">
       <use xlink:href="#DejaVuSans-14"/>
       <use xlink:href="#DejaVuSans-18" transform="translate(63.625 0)"/>
       <use xlink:href="#DejaVuSans-13" transform="translate(127.25 0)"/>
      </g>
     </g>
    </g>
    <g id="xtick_5">
     <g id="line2d_9">
      <path d="M 417.136832 249.798281 
L 417.136832 35.958281 
" clip-path="url(#p46503fdf3c)" style="fill: none; stroke: #e1e0d9; stroke-width: 0.6; stroke-linecap: square"/>
     </g>
     <g id="line2d_10">
      <g>
       <use xlink:href="#m4af38747fd" x="417.136832" y="249.798281" style="fill: #52514e; stroke: #52514e; stroke-width: 0.8"/>
      </g>
     </g>
     <g id="text_5">
      <!-- 200 -->
      <g style="fill: #52514e" transform="translate(407.593082 264.395938) scale(0.1 -0.1)">
       <defs>
        <path id="DejaVuSans-15" d="M 1228 531 
L 3431 531 
L 3431 0 
L 469 0 
L 469 531 
Q 828 903 1448 1529 
Q 2069 2156 2228 2338 
Q 2531 2678 2651 2914 
Q 2772 3150 2772 3378 
Q 2772 3750 2511 3984 
Q 2250 4219 1831 4219 
Q 1534 4219 1204 4116 
Q 875 4013 500 3803 
L 500 4441 
Q 881 4594 1212 4672 
Q 1544 4750 1819 4750 
Q 2544 4750 2975 4387 
Q 3406 4025 3406 3419 
Q 3406 3131 3298 2873 
Q 3191 2616 2906 2266 
Q 2828 2175 2409 1742 
Q 1991 1309 1228 531 
z
" transform="scale(0.015625)"/>
       </defs>
       <use xlink:href="#DejaVuSans-15"/>
       <use xlink:href="#DejaVuSans-13" transform="translate(63.625 0)"/>
       <use xlink:href="#DejaVuSans-13" transform="translate(127.25 0)"/>
      </g>
     </g>
    </g>
    <g id="text_6">
     <!-- Time to onset (days) -->
     <g style="fill: #52514e" transform="translate(223.263906 278.396719) scale(0.1 -0.1)">
      <defs>
       <path id="DejaVuSans-37" d="M -19 4666 
L 3928 4666 
L 3928 4134 
L 2272 4134 
L 2272 0 
L 1638 0 
L 1638 4134 
L -19 4134 
L -19 4666 
z
" transform="scale(0.015625)"/>
       <path id="DejaVuSans-4c" d="M 603 3500 
L 1178 3500 
L 1178 0 
L 603 0 
L 603 3500 
z
M 603 4863 
L 1178 4863 
L 1178 4134 
L 603 4134 
L 603 4863 
z
" transform="scale(0.015625)"/>
       <path id="DejaVuSans-50" d="M 3328 2828 
Q 3544 3216 3844 3400 
Q 4144 3584 4550 3584 
Q 5097 3584 5394 3201 
Q 5691 2819 5691 2113 
L 5691 0 
L 5113 0 
L 5113 2094 
Q 5113 2597 4934 2840 
Q 4756 3084 4391 3084 
Q 3944 3084 3684 2787 
Q 3425 2491 3425 1978 
L 3425 0 
L 2847 0 
L 2847 2094 
Q 2847 2600 2669 2842 
Q 2491 3084 2119 3084 
Q 1678 3084 1418 2786 
Q 1159 2488 1159 1978 
L 1159 0 
L 581 0 
L 581 3500 
L 1159 3500 
L 1159 2956 
Q 1356 3278 1631 3431 
Q 1906 3584 2284 3584 
Q 2666 3584 2933 3390 
Q 3200 3197 3328 2828 
z
" transform="scale(0.015625)"/>
       <path id="DejaVuSans-48" d="M 3597 1894 
L 3597 1613 
L 953 1613 
Q 991 1019 1311 708 
Q 1631 397 2203 397 
Q 2534 397 2845 478 
Q 3156 559 3463 722 
L 3463 178 
Q 3153 47 2828 -22 
Q 2503 -91 2169 -91 
Q 1331 -91 842 396 
Q 353 884 353 1716 
Q 353 2575 817 3079 
Q 1281 3584 2069 3584 
Q 2775 3584 3186 3129 
Q 3597 2675 3597 1894 
z
M 3022 2063 
Q 3016 2534 2758 2815 
Q 2500 3097 2075 3097 
Q 1594 3097 1305 2825 
Q 1016 2553 972 2059 
L 3022 2063 
z
" transform="scale(0.015625)"/>
       <path id="DejaVuSans-3" transform="scale(0.015625)"/>
       <path id="DejaVuSans-57" d="M 1172 4494 
L 1172 3500 
L 2356 3500 
L 2356 3053 
L 1172 3053 
L 1172 1153 
Q 1172 725 1289 603 
Q 1406 481 1766 481 
L 2356 481 
L 2356 0 
L 1766 0 
Q 1100 0 847 248 
Q 594 497 594 1153 
L 594 3053 
L 172 3053 
L 172 3500 
L 594 3500 
L 594 4494 
L 1172 4494 
z
" transform="scale(0.015625)"/>
       <path id="DejaVuSans-52" d="M 1959 3097 
Q 1497 3097 1228 2736 
Q 959 2375 959 1747 
Q 959 1119 1226 758 
Q 1494 397 1959 397 
Q 2419 397 2687 759 
Q 2956 1122 2956 1747 
Q 2956 2369 2687 2733 
Q 2419 3097 1959 3097 
z
M 1959 3584 
Q 2709 3584 3137 3096 
Q 3566 2609 3566 1747 
Q 3566 888 3137 398 
Q 2709 -91 1959 -91 
Q 1206 -91 779 398 
Q 353 888 353 1747 
Q 353 2609 779 3096 
Q 1206 3584 1959 3584 
z
" transform="scale(0.015625)"/>
       <path id="DejaVuSans-51" d="M 3513 2113 
L 3513 0 
L 2938 0 
L 2938 2094 
Q 2938 2591 2744 2837 
Q 2550 3084 2163 3084 
Q 1697 3084 1428 2787 
Q 1159 2491 1159 1978 
L 1159 0 
L 581 0 
L 581 3500 
L 1159 3500 
L 1159 2956 
Q 1366 3272 1645 3428 
Q 1925 3584 2291 3584 
Q 2894 3584 3203 3211 
Q 3513 2838 3513 2113 
z
" transform="scale(0.015625)"/>
       <path id="DejaVuSans-56" d="M 2834 3397 
L 2834 2853 
Q 2591 2978 2328 3040 
Q 2066 3103 1784 3103 
Q 1356 3103 1142 2972 
Q 928 2841 928 2578 
Q 928 2378 1081 2264 
Q 1234 2150 1697 2047 
L 1894 2003 
Q 2506 1872 2764 1633 
Q 3022 1394 3022 966 
Q 3022 478 2636 193 
Q 2250 -91 1575 -91 
Q 1294 -91 989 -36 
Q 684 19 347 128 
L 347 722 
Q 666 556 975 473 
Q 1284 391 1588 391 
Q 1994 391 2212 530 
Q 2431 669 2431 922 
Q 2431 1156 2273 1281 
Q 2116 1406 1581 1522 
L 1381 1569 
Q 847 1681 609 1914 
Q 372 2147 372 2553 
Q 372 3047 722 3315 
Q 1072 3584 1716 3584 
Q 2034 3584 2315 3537 
Q 2597 3491 2834 3397 
z
" transform="scale(0.015625)"/>
       <path id="DejaVuSans-b" d="M 1984 4856 
Q 1566 4138 1362 3434 
Q 1159 2731 1159 2009 
Q 1159 1288 1364 580 
Q 1569 -128 1984 -844 
L 1484 -844 
Q 1016 -109 783 600 
Q 550 1309 550 2009 
Q 550 2706 781 3412 
Q 1013 4119 1484 4856 
L 1984 4856 
z
" transform="scale(0.015625)"/>
       <path id="DejaVuSans-47" d="M 2906 2969 
L 2906 4863 
L 3481 4863 
L 3481 0 
L 2906 0 
L 2906 525 
Q 2725 213 2448 61 
Q 2172 -91 1784 -91 
Q 1150 -91 751 415 
Q 353 922 353 1747 
Q 353 2572 751 3078 
Q 1150 3584 1784 3584 
Q 2172 3584 2448 3432 
Q 2725 3281 2906 2969 
z
M 947 1747 
Q 947 1113 1208 752 
Q 1469 391 1925 391 
Q 2381 391 2643 752 
Q 2906 1113 2906 1747 
Q 2906 2381 2643 2742 
Q 2381 3103 1925 3103 
Q 1469 3103 1208 2742 
Q 947 2381 947 1747 
z
" transform="scale(0.015625)"/>
       <path id="DejaVuSans-44" d="M 2194 1759 
Q 1497 1759 1228 1600 
Q 959 1441 959 1056 
Q 959 750 1161 570 
Q 1363 391 1709 391 
Q 2188 391 2477 730 
Q 2766 1069 2766 1631 
L 2766 1759 
L 2194 1759 
z
M 3341 1997 
L 3341 0 
L 2766 0 
L 2766 531 
Q 2569 213 2275 61 
Q 1981 -91 1556 -91 
Q 1019 -91 701 211 
Q 384 513 384 1019 
Q 384 1609 779 1909 
Q 1175 2209 1959 2209 
L 2766 2209 
L 2766 2266 
Q 2766 2663 2505 2880 
Q 2244 3097 1772 3097 
Q 1472 3097 1187 3025 
Q 903 2953 641 2809 
L 641 3341 
Q 956 3463 1253 3523 
Q 1550 3584 1831 3584 
Q 2591 3584 2966 3190 
Q 3341 2797 3341 1997 
z
" transform="scale(0.015625)"/>
       <path id="DejaVuSans-5c" d="M 2059 -325 
Q 1816 -950 1584 -1140 
Q 1353 -1331 966 -1331 
L 506 -1331 
L 506 -850 
L 844 -850 
Q 1081 -850 1212 -737 
Q 1344 -625 1503 -206 
L 1606 56 
L 191 3500 
L 800 3500 
L 1894 763 
L 2988 3500 
L 3597 3500 
L 2059 -325 
z
" transform="scale(0.015625)"/>
       <path id="DejaVuSans-c" d="M 513 4856 
L 1013 4856 
Q 1481 4119 1714 3412 
Q 1947 2706 1947 2009 
Q 1947 1309 1714 600 
Q 1481 -109 1013 -844 
L 513 -844 
Q 928 -128 1133 580 
Q 1338 1288 1338 2009 
Q 1338 2731 1133 3434 
Q 928 4138 513 4856 
z
" transform="scale(0.015625)"/>
      </defs>
      <use xlink:href="#DejaVuSans-37"/>
      <use xlink:href="#DejaVuSans-4c" transform="translate(58 0)"/>
      <use xlink:href="#DejaVuSans-50" transform="translate(85.78125 0)"/>
      <use xlink:href="#DejaVuSans-48" transform="translate(183.1875 0)"/>
      <use xlink:href="#DejaVuSans-3" transform="translate(244.71875 0)"/>
      <use xlink:href="#DejaVuSans-57" transform="translate(276.5 0)"/>
      <use xlink:href="#DejaVuSans-52" transform="translate(315.703125 0)"/>
      <use xlink:href="#DejaVuSans-3" transform="translate(376.890625 0)"/>
      <use xlink:href="#DejaVuSans-52" transform="translate(408.671875 0)"/>
      <use xlink:href="#DejaVuSans-51" transform="translate(469.859375 0)"/>
      <use xlink:href="#DejaVuSans-56" transform="translate(533.234375 0)"/>
      <use xlink:href="#DejaVuSans-48" transform="translate(585.328125 0)"/>
      <use xlink:href="#DejaVuSans-57" transform="translate(646.859375 0)"/>
      <use xlink:href="#DejaVuSans-3" transform="translate(686.0625 0)"/>
      <use xlink:href="#DejaVuSans-b" transform="translate(717.84375 0)"/>
      <use xlink:href="#DejaVuSans-47" transform="translate(756.859375 0)"/>
      <use xlink:href="#DejaVuSans-44" transform="translate(820.34375 0)"/>
      <use xlink:href="#DejaVuSans-5c" transform="translate(881.625 0)"/>
      <use xlink:href="#DejaVuSans-56" transform="translate(940.8125 0)"/>
      <use xlink:href="#DejaVuSans-c" transform="translate(992.90625 0)"/>
     </g>
    </g>
   </g>
   <g id="matplotlib.axis_2">
    <g id="ytick_1">
     <g id="line2d_11">
      <path d="M 79.56 249.798281 
L 470.16 249.798281 
" clip-path="url(#p46503fdf3c)" style="fill: none; stroke: #e1e0d9; stroke-width: 0.6; stroke-linecap: square"/>
     </g>
     <g id="line2d_12">
      <defs>
       <path id="m8f902dd76b" d="M 0 0 
L -3.5 0 
" style="stroke: #52514e; stroke-width: 0.8"/>
      </defs>
      <g>
       <use xlink:href="#m8f902dd76b" x="79.56" y="249.798281" style="fill: #52514e; stroke: #52514e; stroke-width: 0.8"/>
      </g>
     </g>
     <g id="text_7">
      <!-- 0.00 -->
      <g style="fill: #52514e" transform="translate(50.294375 253.597109) scale(0.1 -0.1)">
       <defs>
        <path id="DejaVuSans-11" d="M 684 794 
L 1344 794 
L 1344 0 
L 684 0 
L 684 794 
z
" transform="scale(0.015625)"/>
       </defs>
       <use xlink:href="#DejaVuSans-13"/>
       <use xlink:href="#DejaVuSans-11" transform="translate(63.625 0)"/>
       <use xlink:href="#DejaVuSans-13" transform="translate(95.40625 0)"/>
       <use xlink:href="#DejaVuSans-13" transform="translate(159.03125 0)"/>
      </g>
     </g>
    </g>
    <g id="ytick_2">
     <g id="line2d_13">
      <path d="M 79.56 221.405145 
L 470.16 221.405145 
" clip-path="url(#p46503fdf3c)" style="fill: none; stroke: #e1e0d9; stroke-width: 0.6; stroke-linecap: square"/>
     </g>
     <g id="line2d_14">
      <g>
       <use xlink:href="#m8f902dd76b" x="79.56" y="221.405145" style="fill: #52514e; stroke: #52514e; stroke-width: 0.8"/>
      </g>
     </g>
     <g id="text_8">
      <!-- 0.01 -->
      <g style="fill: #52514e" transform="translate(50.294375 225.203973) scale(0.1 -0.1)">
       <use xlink:href="#DejaVuSans-13"/>
       <use xlink:href="#DejaVuSans-11" transform="translate(63.625 0)"/>
       <use xlink:href="#DejaVuSans-13" transform="translate(95.40625 0)"/>
       <use xlink:href="#DejaVuSans-14" transform="translate(159.03125 0)"/>
      </g>
     </g>
    </g>
    <g id="ytick_3">
     <g id="line2d_15">
      <path d="M 79.56 193.012009 
L 470.16 193.012009 
" clip-path="url(#p46503fdf3c)" style="fill: none; stroke: #e1e0d9; stroke-width: 0.6; stroke-linecap: square"/>
     </g>
     <g id="line2d_16">
      <g>
       <use xlink:href="#m8f902dd76b" x="79.56" y="193.012009" style="fill: #52514e; stroke: #52514e; stroke-width: 0.8"/>
      </g>
     </g>
     <g id="text_9">
      <!-- 0.02 -->
      <g style="fill: #52514e" transform="translate(50.294375 196.810837) scale(0.1 -0.1)">
       <use xlink:href="#DejaVuSans-13"/>
       <use xlink:href="#DejaVuSans-11" transform="translate(63.625 0)"/>
       <use xlink:href="#DejaVuSans-13" transform="translate(95.40625 0)"/>
       <use xlink:href="#DejaVuSans-15" transform="translate(159.03125 0)"/>
      </g>
     </g>
    </g>
    <g id="ytick_4">
     <g id="line2d_17">
      <path d="M 79.56 164.618872 
L 470.16 164.618872 
" clip-path="url(#p46503fdf3c)" style="fill: none; stroke: #e1e0d9; stroke-width: 0.6; stroke-linecap: square"/>
     </g>
     <g id="line2d_18">
      <g>
       <use xlink:href="#m8f902dd76b" x="79.56" y="164.618872" style="fill: #52514e; stroke: #52514e; stroke-width: 0.8"/>
      </g>
     </g>
     <g id="text_10">
      <!-- 0.03 -->
      <g style="fill: #52514e" transform="translate(50.294375 168.417701) scale(0.1 -0.1)">
       <defs>
        <path id="DejaVuSans-16" d="M 2597 2516 
Q 3050 2419 3304 2112 
Q 3559 1806 3559 1356 
Q 3559 666 3084 287 
Q 2609 -91 1734 -91 
Q 1441 -91 1130 -33 
Q 819 25 488 141 
L 488 750 
Q 750 597 1062 519 
Q 1375 441 1716 441 
Q 2309 441 2620 675 
Q 2931 909 2931 1356 
Q 2931 1769 2642 2001 
Q 2353 2234 1838 2234 
L 1294 2234 
L 1294 2753 
L 1863 2753 
Q 2328 2753 2575 2939 
Q 2822 3125 2822 3475 
Q 2822 3834 2567 4026 
Q 2313 4219 1838 4219 
Q 1578 4219 1281 4162 
Q 984 4106 628 3988 
L 628 4550 
Q 988 4650 1302 4700 
Q 1616 4750 1894 4750 
Q 2613 4750 3031 4423 
Q 3450 4097 3450 3541 
Q 3450 3153 3228 2886 
Q 3006 2619 2597 2516 
z
" transform="scale(0.015625)"/>
       </defs>
       <use xlink:href="#DejaVuSans-13"/>
       <use xlink:href="#DejaVuSans-11" transform="translate(63.625 0)"/>
       <use xlink:href="#DejaVuSans-13" transform="translate(95.40625 0)"/>
       <use xlink:href="#DejaVuSans-16" transform="translate(159.03125 0)"/>
      </g>
     </g>
    </g>
    <g id="ytick_5">
     <g id="line2d_19">
      <path d="M 79.56 136.225736 
L 470.16 136.225736 
" clip-path="url(#p46503fdf3c)" style="fill: none; stroke: #e1e0d9; stroke-width: 0.6; stroke-linecap: square"/>
     </g>
     <g id="line2d_20">
      <g>
       <use xlink:href="#m8f902dd76b" x="79.56" y="136.225736" style="fill: #52514e; stroke: #52514e; stroke-width: 0.8"/>
      </g>
     </g>
     <g id="text_11">
      <!-- 0.04 -->
      <g style="fill: #52514e" transform="translate(50.294375 140.024564) scale(0.1 -0.1)">
       <defs>
        <path id="DejaVuSans-17" d="M 2419 4116 
L 825 1625 
L 2419 1625 
L 2419 4116 
z
M 2253 4666 
L 3047 4666 
L 3047 1625 
L 3713 1625 
L 3713 1100 
L 3047 1100 
L 3047 0 
L 2419 0 
L 2419 1100 
L 313 1100 
L 313 1709 
L 2253 4666 
z
" transform="scale(0.015625)"/>
       </defs>
       <use xlink:href="#DejaVuSans-13"/>
       <use xlink:href="#DejaVuSans-11" transform="translate(63.625 0)"/>
       <use xlink:href="#DejaVuSans-13" transform="translate(95.40625 0)"/>
       <use xlink:href="#DejaVuSans-17" transform="translate(159.03125 0)"/>
      </g>
     </g>
    </g>
    <g id="ytick_6">
     <g id="line2d_21">
      <path d="M 79.56 107.8326 
L 470.16 107.8326 
" clip-path="url(#p46503fdf3c)" style="fill: none; stroke: #e1e0d9; stroke-width: 0.6; stroke-linecap: square"/>
     </g>
     <g id="line2d_22">
      <g>
       <use xlink:href="#m8f902dd76b" x="79.56" y="107.8326" style="fill: #52514e; stroke: #52514e; stroke-width: 0.8"/>
      </g>
     </g>
     <g id="text_12">
      <!-- 0.05 -->
      <g style="fill: #52514e" transform="translate(50.294375 111.631428) scale(0.1 -0.1)">
       <use xlink:href="#DejaVuSans-13"/>
       <use xlink:href="#DejaVuSans-11" transform="translate(63.625 0)"/>
       <use xlink:href="#DejaVuSans-13" transform="translate(95.40625 0)"/>
       <use xlink:href="#DejaVuSans-18" transform="translate(159.03125 0)"/>
      </g>
     </g>
    </g>
    <g id="ytick_7">
     <g id="line2d_23">
      <path d="M 79.56 79.439464 
L 470.16 79.439464 
" clip-path="url(#p46503fdf3c)" style="fill: none; stroke: #e1e0d9; stroke-width: 0.6; stroke-linecap: square"/>
     </g>
     <g id="line2d_24">
      <g>
       <use xlink:href="#m8f902dd76b" x="79.56" y="79.439464" style="fill: #52514e; stroke: #52514e; stroke-width: 0.8"/>
      </g>
     </g>
     <g id="text_13">
      <!-- 0.06 -->
      <g style="fill: #52514e" transform="translate(50.294375 83.238292) scale(0.1 -0.1)">
       <defs>
        <path id="DejaVuSans-19" d="M 2113 2584 
Q 1688 2584 1439 2293 
Q 1191 2003 1191 1497 
Q 1191 994 1439 701 
Q 1688 409 2113 409 
Q 2538 409 2786 701 
Q 3034 994 3034 1497 
Q 3034 2003 2786 2293 
Q 2538 2584 2113 2584 
z
M 3366 4563 
L 3366 3988 
Q 3128 4100 2886 4159 
Q 2644 4219 2406 4219 
Q 1781 4219 1451 3797 
Q 1122 3375 1075 2522 
Q 1259 2794 1537 2939 
Q 1816 3084 2150 3084 
Q 2853 3084 3261 2657 
Q 3669 2231 3669 1497 
Q 3669 778 3244 343 
Q 2819 -91 2113 -91 
Q 1303 -91 875 529 
Q 447 1150 447 2328 
Q 447 3434 972 4092 
Q 1497 4750 2381 4750 
Q 2619 4750 2861 4703 
Q 3103 4656 3366 4563 
z
" transform="scale(0.015625)"/>
       </defs>
       <use xlink:href="#DejaVuSans-13"/>
       <use xlink:href="#DejaVuSans-11" transform="translate(63.625 0)"/>
       <use xlink:href="#DejaVuSans-13" transform="translate(95.40625 0)"/>
       <use xlink:href="#DejaVuSans-19" transform="translate(159.03125 0)"/>
      </g>
     </g>
    </g>
    <g id="ytick_8">
     <g id="line2d_25">
      <path d="M 79.56 51.046327 
L 470.16 51.046327 
" clip-path="url(#p46503fdf3c)" style="fill: none; stroke: #e1e0d9; stroke-width: 0.6; stroke-linecap: square"/>
     </g>
     <g id="line2d_26">
      <g>
       <use xlink:href="#m8f902dd76b" x="79.56" y="51.046327" style="fill: #52514e; stroke: #52514e; stroke-width: 0.8"/>
      </g>
     </g>
     <g id="text_14">
      <!-- 0.07 -->
      <g style="fill: #52514e" transform="translate(50.294375 54.845156) scale(0.1 -0.1)">
       <defs>
        <path id="DejaVuSans-1a" d="M 525 4666 
L 3525 4666 
L 3525 4397 
L 1831 0 
L 1172 0 
L 2766 4134 
L 525 4134 
L 525 4666 
z
" transform="scale(0.015625)"/>
       </defs>
       <use xlink:href="#DejaVuSans-13"/>
       <use xlink:href="#DejaVuSans-11" transform="translate(63.625 0)"/>
       <use xlink:href="#DejaVuSans-13" transform="translate(95.40625 0)"/>
       <use xlink:href="#DejaVuSans-1a" transform="translate(159.03125 0)"/>
      </g>
     </g>
    </g>
    <g id="text_15">
     <!-- Density -->
     <g style="fill: #52514e" transform="translate(43.892031 161.886875) rotate(-90) scale(0.1 -0.1)">
      <defs>
       <path id="DejaVuSans-27" d="M 1259 4147 
L 1259 519 
L 2022 519 
Q 2988 519 3436 956 
Q 3884 1394 3884 2338 
Q 3884 3275 3436 3711 
Q 2988 4147 2022 4147 
L 1259 4147 
z
M 628 4666 
L 1925 4666 
Q 3281 4666 3915 4102 
Q 4550 3538 4550 2338 
Q 4550 1131 3912 565 
Q 3275 0 1925 0 
L 628 0 
L 628 4666 
z
" transform="scale(0.015625)"/>
      </defs>
      <use xlink:href="#DejaVuSans-27"/>
      <use xlink:href="#DejaVuSans-48" transform="translate(77 0)"/>
      <use xlink:href="#DejaVuSans-51" transform="translate(138.53125 0)"/>
      <use xlink:href="#DejaVuSans-56" transform="translate(201.90625 0)"/>
      <use xlink:href="#DejaVuSans-4c" transform="translate(254 0)"/>
      <use xlink:href="#DejaVuSans-57" transform="translate(281.78125 0)"/>
      <use xlink:href="#DejaVuSans-5c" transform="translate(320.984375 0)"/>
     </g>
    </g>
   </g>
   <g id="patch_3">
    <path d="M 97.314545 249.798281 
L 115.069091 249.798281 
L 115.069091 155.795422 
L 97.314545 155.795422 
z
" clip-path="url(#p46503fdf3c)" style="fill: #2a78d6; opacity: 0.75"/>
   </g>
   <g id="patch_4">
    <path d="M 115.069091 249.798281 
L 132.823636 249.798281 
L 132.823636 215.615423 
L 115.069091 215.615423 
z
" clip-path="url(#p46503fdf3c)" style="fill: #2a78d6; opacity: 0.75"/>
   </g>
   <g id="patch_5">
    <path d="M 132.823636 249.798281 
L 150.578182 249.798281 
L 150.578182 235.555424 
L 132.823636 235.555424 
z
" clip-path="url(#p46503fdf3c)" style="fill: #2a78d6; opacity: 0.75"/>
   </g>
   <g id="patch_6">
    <path d="M 150.578182 249.798281 
L 168.332727 249.798281 
L 168.332727 212.766852 
L 150.578182 212.766852 
z
" clip-path="url(#p46503fdf3c)" style="fill: #2a78d6; opacity: 0.75"/>
   </g>
   <g id="patch_7">
    <path d="M 168.332727 249.798281 
L 186.087273 249.798281 
L 186.087273 238.403995 
L 168.332727 238.403995 
z
" clip-path="url(#p46503fdf3c)" style="fill: #2a78d6; opacity: 0.75"/>
   </g>
   <g id="patch_8">
    <path d="M 186.087273 249.798281 
L 203.841818 249.798281 
L 203.841818 238.403995 
L 186.087273 238.403995 
z
" clip-path="url(#p46503fdf3c)" style="fill: #2a78d6; opacity: 0.75"/>
   </g>
   <g id="patch_9">
    <path d="M 203.841818 249.798281 
L 221.596364 249.798281 
L 221.596364 232.706852 
L 203.841818 232.706852 
z
" clip-path="url(#p46503fdf3c)" style="fill: #2a78d6; opacity: 0.75"/>
   </g>
   <g id="patch_10">
    <path d="M 221.596364 249.798281 
L 239.350909 249.798281 
L 239.350909 244.101138 
L 221.596364 244.101138 
z
" clip-path="url(#p46503fdf3c)" style="fill: #2a78d6; opacity: 0.75"/>
   </g>
   <g id="patch_11">
    <path d="M 239.350909 249.798281 
L 257.105455 249.798281 
L 257.105455 249.798281 
L 239.350909 249.798281 
z
" clip-path="url(#p46503fdf3c)" style="fill: #2a78d6; opacity: 0.75"/>
   </g>
   <g id="patch_12">
    <path d="M 257.105455 249.798281 
L 274.86 249.798281 
L 274.86 241.252567 
L 257.105455 241.252567 
z
" clip-path="url(#p46503fdf3c)" style="fill: #2a78d6; opacity: 0.75"/>
   </g>
   <g id="patch_13">
    <path d="M 274.86 249.798281 
L 292.614545 249.798281 
L 292.614545 246.94971 
L 274.86 246.94971 
z
" clip-path="url(#p46503fdf3c)" style="fill: #2a78d6; opacity: 0.75"/>
   </g>
   <g id="patch_14">
    <path d="M 292.614545 249.798281 
L 310.369091 249.798281 
L 310.369091 244.101138 
L 292.614545 244.101138 
z
" clip-path="url(#p46503fdf3c)" style="fill: #2a78d6; opacity: 0.75"/>
   </g>
   <g id="patch_15">
    <path d="M 310.369091 249.798281 
L 328.123636 249.798281 
L 328.123636 249.798281 
L 310.369091 249.798281 
z
" clip-path="url(#p46503fdf3c)" style="fill: #2a78d6; opacity: 0.75"/>
   </g>
   <g id="patch_16">
    <path d="M 328.123636 249.798281 
L 345.878182 249.798281 
L 345.878182 249.798281 
L 328.123636 249.798281 
z
" clip-path="url(#p46503fdf3c)" style="fill: #2a78d6; opacity: 0.75"/>
   </g>
   <g id="patch_17">
    <path d="M 345.878182 249.798281 
L 363.632727 249.798281 
L 363.632727 249.798281 
L 345.878182 249.798281 
z
" clip-path="url(#p46503fdf3c)" style="fill: #2a78d6; opacity: 0.75"/>
   </g>
   <g id="patch_18">
    <path d="M 363.632727 249.798281 
L 381.387273 249.798281 
L 381.387273 246.94971 
L 363.632727 246.94971 
z
" clip-path="url(#p46503fdf3c)" style="fill: #2a78d6; opacity: 0.75"/>
   </g>
   <g id="patch_19">
    <path d="M 381.387273 249.798281 
L 399.141818 249.798281 
L 399.141818 249.798281 
L 381.387273 249.798281 
z
" clip-path="url(#p46503fdf3c)" style="fill: #2a78d6; opacity: 0.75"/>
   </g>
   <g id="patch_20">
    <path d="M 399.141818 249.798281 
L 416.896364 249.798281 
L 416.896364 246.94971 
L 399.141818 246.94971 
z
" clip-path="url(#p46503fdf3c)" style="fill: #2a78d6; opacity: 0.75"/>
   </g>
   <g id="patch_21">
    <path d="M 416.896364 249.798281 
L 434.650909 249.798281 
L 434.650909 249.798281 
L 416.896364 249.798281 
z
" clip-path="url(#p46503fdf3c)" style="fill: #2a78d6; opacity: 0.75"/>
   </g>
   <g id="patch_22">
    <path d="M 434.650909 249.798281 
L 452.405455 249.798281 
L 452.405455 241.252567 
L 434.650909 241.252567 
z
" clip-path="url(#p46503fdf3c)" style="fill: #2a78d6; opacity: 0.75"/>
   </g>
   <g id="line2d_27">
    <path d="M 97.314545 46.141138 
L 99.098922 122.529096 
L 100.883298 148.873932 
L 102.667675 163.986388 
L 104.452051 174.274588 
L 106.236428 181.928505 
L 108.020804 187.942198 
L 109.80518 192.845466 
L 111.589557 196.951901 
L 113.373933 200.461454 
L 115.15831 203.508911 
L 116.942686 206.18915 
L 118.727063 208.571309 
L 120.511439 210.707223 
L 122.295815 212.636681 
L 125.864568 215.994552 
L 129.433321 218.827281 
L 133.002074 221.256662 
L 136.570827 223.367798 
L 140.13958 225.222331 
L 143.708333 226.866232 
L 149.061462 229.011814 
L 154.414591 230.848844 
L 159.76772 232.440232 
L 165.12085 233.832317 
L 172.258355 235.437742 
L 179.395861 236.812204 
L 188.317743 238.273357 
L 197.239625 239.508135 
L 207.945884 240.755713 
L 220.436519 241.960008 
L 234.71153 243.083144 
L 250.770918 244.103045 
L 268.614683 245.009939 
L 290.0272 245.866317 
L 315.00847 246.634041 
L 345.342869 247.330872 
L 382.814774 247.949812 
L 429.208561 248.475932 
L 452.405455 248.671089 
L 452.405455 248.671089 
" clip-path="url(#p46503fdf3c)" style="fill: none; stroke: #e34948; stroke-width: 2; stroke-linecap: square"/>
   </g>
   <g id="patch_23">
    <path d="M 79.56 249.798281 
L 79.56 35.958281 
" style="fill: none; stroke: #e1e0d9; stroke-width: 0.8; stroke-linejoin: miter; stroke-linecap: square"/>
   </g>
   <g id="patch_24">
    <path d="M 79.56 249.798281 
L 470.16 249.798281 
" style="fill: none; stroke: #e1e0d9; stroke-width: 0.8; stroke-linejoin: miter; stroke-linecap: square"/>
   </g>
   <g id="text_16">
    <!-- F4. Time-to-onset distribution with fitted Weibull curve -->
    <g style="fill: #0b0b0b" transform="translate(79.56 29.958281) scale(0.11 -0.11)">
     <defs>
      <path id="DejaVuSans-29" d="M 628 4666 
L 3309 4666 
L 3309 4134 
L 1259 4134 
L 1259 2759 
L 3109 2759 
L 3109 2228 
L 1259 2228 
L 1259 0 
L 628 0 
L 628 4666 
z
" transform="scale(0.015625)"/>
      <path id="DejaVuSans-10" d="M 313 2009 
L 1997 2009 
L 1997 1497 
L 313 1497 
L 313 2009 
z
" transform="scale(0.015625)"/>
      <path id="DejaVuSans-55" d="M 2631 2963 
Q 2534 3019 2420 3045 
Q 2306 3072 2169 3072 
Q 1681 3072 1420 2755 
Q 1159 2438 1159 1844 
L 1159 0 
L 581 0 
L 581 3500 
L 1159 3500 
L 1159 2956 
Q 1341 3275 1631 3429 
Q 1922 3584 2338 3584 
Q 2397 3584 2469 3576 
Q 2541 3569 2628 3553 
L 2631 2963 
z
" transform="scale(0.015625)"/>
      <path id="DejaVuSans-45" d="M 3116 1747 
Q 3116 2381 2855 2742 
Q 2594 3103 2138 3103 
Q 1681 3103 1420 2742 
Q 1159 2381 1159 1747 
Q 1159 1113 1420 752 
Q 1681 391 2138 391 
Q 2594 391 2855 752 
Q 3116 1113 3116 1747 
z
M 1159 2969 
Q 1341 3281 1617 3432 
Q 1894 3584 2278 3584 
Q 2916 3584 3314 3078 
Q 3713 2572 3713 1747 
Q 3713 922 3314 415 
Q 2916 -91 2278 -91 
Q 1894 -91 1617 61 
Q 1341 213 1159 525 
L 1159 0 
L 581 0 
L 581 4863 
L 1159 4863 
L 1159 2969 
z
" transform="scale(0.015625)"/>
      <path id="DejaVuSans-58" d="M 544 1381 
L 544 3500 
L 1119 3500 
L 1119 1403 
Q 1119 906 1312 657 
Q 1506 409 1894 409 
Q 2359 409 2629 706 
Q 2900 1003 2900 1516 
L 2900 3500 
L 3475 3500 
L 3475 0 
L 2900 0 
L 2900 538 
Q 2691 219 2414 64 
Q 2138 -91 1772 -91 
Q 1169 -91 856 284 
Q 544 659 544 1381 
z
M 1991 3584 
L 1991 3584 
z
" transform="scale(0.015625)"/>
      <path id="DejaVuSans-5a" d="M 269 3500 
L 844 3500 
L 1563 769 
L 2278 3500 
L 2956 3500 
L 3675 769 
L 4391 3500 
L 4966 3500 
L 4050 0 
L 3372 0 
L 2619 2869 
L 1863 0 
L 1184 0 
L 269 3500 
z
" transform="scale(0.015625)"/>
      <path id="DejaVuSans-4b" d="M 3513 2113 
L 3513 0 
L 2938 0 
L 2938 2094 
Q 2938 2591 2744 2837 
Q 2550 3084 2163 3084 
Q 1697 3084 1428 2787 
Q 1159 2491 1159 1978 
L 1159 0 
L 581 0 
L 581 4863 
L 1159 4863 
L 1159 2956 
Q 1366 3272 1645 3428 
Q 1925 3584 2291 3584 
Q 2894 3584 3203 3211 
Q 3513 2838 3513 2113 
z
" transform="scale(0.015625)"/>
      <path id="DejaVuSans-13af" d="M 3431 3500 
L 3431 0 
L 2853 0 
L 2853 3053 
L 1275 3053 
L 1275 0 
L 697 0 
L 697 3053 
L 147 3053 
L 147 3500 
L 697 3500 
L 697 3744 
Q 697 4316 967 4589 
Q 1238 4863 1797 4863 
L 2375 4863 
L 2375 4384 
L 1825 4384 
Q 1516 4384 1395 4259 
Q 1275 4134 1275 3809 
L 1275 3500 
L 3431 3500 
z
M 2853 4856 
L 3431 4856 
L 3431 4128 
L 2853 4128 
L 2853 4856 
z
" transform="scale(0.015625)"/>
      <path id="DejaVuSans-3a" d="M 213 4666 
L 850 4666 
L 1831 722 
L 2809 4666 
L 3519 4666 
L 4500 722 
L 5478 4666 
L 6119 4666 
L 4947 0 
L 4153 0 
L 3169 4050 
L 2175 0 
L 1381 0 
L 213 4666 
z
" transform="scale(0.015625)"/>
      <path id="DejaVuSans-4f" d="M 603 4863 
L 1178 4863 
L 1178 0 
L 603 0 
L 603 4863 
z
" transform="scale(0.015625)"/>
      <path id="DejaVuSans-46" d="M 3122 3366 
L 3122 2828 
Q 2878 2963 2633 3030 
Q 2388 3097 2138 3097 
Q 1578 3097 1268 2742 
Q 959 2388 959 1747 
Q 959 1106 1268 751 
Q 1578 397 2138 397 
Q 2388 397 2633 464 
Q 2878 531 3122 666 
L 3122 134 
Q 2881 22 2623 -34 
Q 2366 -91 2075 -91 
Q 1284 -91 818 406 
Q 353 903 353 1747 
Q 353 2603 823 3093 
Q 1294 3584 2113 3584 
Q 2378 3584 2631 3529 
Q 2884 3475 3122 3366 
z
" transform="scale(0.015625)"/>
      <path id="DejaVuSans-59" d="M 191 3500 
L 800 3500 
L 1894 563 
L 2988 3500 
L 3597 3500 
L 2284 0 
L 1503 0 
L 191 3500 
z
" transform="scale(0.015625)"/>
     </defs>
     <use xlink:href="#DejaVuSans-29"/>
     <use xlink:href="#DejaVuSans-17" transform="translate(57.515625 0)"/>
     <use xlink:href="#DejaVuSans-11" transform="translate(121.140625 0)"/>
     <use xlink:href="#DejaVuSans-3" transform="translate(152.921875 0)"/>
     <use xlink:href="#DejaVuSans-37" transform="translate(184.703125 0)"/>
     <use xlink:href="#DejaVuSans-4c" transform="translate(242.703125 0)"/>
     <use xlink:href="#DejaVuSans-50" transform="translate(270.484375 0)"/>
     <use xlink:href="#DejaVuSans-48" transform="translate(367.890625 0)"/>
     <use xlink:href="#DejaVuSans-10" transform="translate(429.421875 0)"/>
     <use xlink:href="#DejaVuSans-57" transform="translate(465.5 0)"/>
     <use xlink:href="#DejaVuSans-52" transform="translate(504.703125 0)"/>
     <use xlink:href="#DejaVuSans-10" transform="translate(567.75 0)"/>
     <use xlink:href="#DejaVuSans-52" transform="translate(605.6875 0)"/>
     <use xlink:href="#DejaVuSans-51" transform="translate(666.875 0)"/>
     <use xlink:href="#DejaVuSans-56" transform="translate(730.25 0)"/>
     <use xlink:href="#DejaVuSans-48" transform="translate(782.34375 0)"/>
     <use xlink:href="#DejaVuSans-57" transform="translate(843.875 0)"/>
     <use xlink:href="#DejaVuSans-3" transform="translate(883.078125 0)"/>
     <use xlink:href="#DejaVuSans-47" transform="translate(914.859375 0)"/>
     <use xlink:href="#DejaVuSans-4c" transform="translate(978.34375 0)"/>
     <use xlink:href="#DejaVuSans-56" transform="translate(1006.125 0)"/>
     <use xlink:href="#DejaVuSans-57" transform="translate(1058.21875 0)"/>
     <use xlink:href="#DejaVuSans-55" transform="translate(1097.421875 0)"/>
     <use xlink:href="#DejaVuSans-4c" transform="translate(1138.53125 0)"/>
     <use xlink:href="#DejaVuSans-45" transform="translate(1166.3125 0)"/>
     <use xlink:href="#DejaVuSans-58" transform="translate(1229.796875 0)"/>
     <use xlink:href="#DejaVuSans-57" transform="translate(1293.171875 0)"/>
     <use xlink:href="#DejaVuSans-4c" transform="translate(1332.375 0)"/>
     <use xlink:href="#DejaVuSans-52" transform="translate(1360.15625 0)"/>
     <use xlink:href="#DejaVuSans-51" transform="translate(1421.34375 0)"/>
     <use xlink:href="#DejaVuSans-3" transform="translate(1484.71875 0)"/>
     <use xlink:href="#DejaVuSans-5a" transform="translate(1516.5 0)"/>
     <use xlink:href="#DejaVuSans-4c" transform="translate(1598.28125 0)"/>
     <use xlink:href="#DejaVuSans-57" transform="translate(1626.0625 0)"/>
     <use xlink:href="#DejaVuSans-4b" transform="translate(1665.265625 0)"/>
     <use xlink:href="#DejaVuSans-3" transform="translate(1728.640625 0)"/>
     <use xlink:href="#DejaVuSans-13af" transform="translate(1760.421875 0)"/>
     <use xlink:href="#DejaVuSans-57" transform="translate(1823.40625 0)"/>
     <use xlink:href="#DejaVuSans-57" transform="translate(1862.609375 0)"/>
     <use xlink:href="#DejaVuSans-48" transform="translate(1901.8125 0)"/>
     <use xlink:href="#DejaVuSans-47" transform="translate(1963.34375 0)"/>
     <use xlink:href="#DejaVuSans-3" transform="translate(2026.828125 0)"/>
     <use xlink:href="#DejaVuSans-3a" transform="translate(2058.609375 0)"/>
     <use xlink:href="#DejaVuSans-48" transform="translate(2151.625 0)"/>
     <use xlink:href="#DejaVuSans-4c" transform="translate(2213.15625 0)"/>
     <use xlink:href="#DejaVuSans-45" transform="translate(2240.9375 0)"/>
     <use xlink:href="#DejaVuSans-58" transform="translate(2304.421875 0)"/>
     <use xlink:href="#DejaVuSans-4f" transform="translate(2367.796875 0)"/>
     <use xlink:href="#DejaVuSans-4f" transform="translate(2395.578125 0)"/>
     <use xlink:href="#DejaVuSans-3" transform="translate(2423.359375 0)"/>
     <use xlink:href="#DejaVuSans-46" transform="translate(2455.140625 0)"/>
     <use xlink:href="#DejaVuSans-58" transform="translate(2510.125 0)"/>
     <use xlink:href="#DejaVuSans-55" transform="translate(2573.5 0)"/>
     <use xlink:href="#DejaVuSans-59" transform="translate(2614.609375 0)"/>
     <use xlink:href="#DejaVuSans-48" transform="translate(2673.796875 0)"/>
    </g>
   </g>
   <g id="legend_1">
    <g id="patch_25">
     <path d="M 334.98125 49.237031 
L 350.98125 49.237031 
L 350.98125 43.637031 
L 334.98125 43.637031 
z
" style="fill: #2a78d6; opacity: 0.75"/>
    </g>
    <g id="text_17">
     <!-- Observed onset (n=90) -->
     <g style="fill: #0b0b0b" transform="translate(357.38125 49.237031) scale(0.08 -0.08)">
      <defs>
       <path id="DejaVuSans-32" d="M 2522 4238 
Q 1834 4238 1429 3725 
Q 1025 3213 1025 2328 
Q 1025 1447 1429 934 
Q 1834 422 2522 422 
Q 3209 422 3611 934 
Q 4013 1447 4013 2328 
Q 4013 3213 3611 3725 
Q 3209 4238 2522 4238 
z
M 2522 4750 
Q 3503 4750 4090 4092 
Q 4678 3434 4678 2328 
Q 4678 1225 4090 567 
Q 3503 -91 2522 -91 
Q 1538 -91 948 565 
Q 359 1222 359 2328 
Q 359 3434 948 4092 
Q 1538 4750 2522 4750 
z
" transform="scale(0.015625)"/>
       <path id="DejaVuSans-20" d="M 678 2906 
L 4684 2906 
L 4684 2381 
L 678 2381 
L 678 2906 
z
M 678 1631 
L 4684 1631 
L 4684 1100 
L 678 1100 
L 678 1631 
z
" transform="scale(0.015625)"/>
       <path id="DejaVuSans-1c" d="M 703 97 
L 703 672 
Q 941 559 1184 500 
Q 1428 441 1663 441 
Q 2288 441 2617 861 
Q 2947 1281 2994 2138 
Q 2813 1869 2534 1725 
Q 2256 1581 1919 1581 
Q 1219 1581 811 2004 
Q 403 2428 403 3163 
Q 403 3881 828 4315 
Q 1253 4750 1959 4750 
Q 2769 4750 3195 4129 
Q 3622 3509 3622 2328 
Q 3622 1225 3098 567 
Q 2575 -91 1691 -91 
Q 1453 -91 1209 -44 
Q 966 3 703 97 
z
M 1959 2075 
Q 2384 2075 2632 2365 
Q 2881 2656 2881 3163 
Q 2881 3666 2632 3958 
Q 2384 4250 1959 4250 
Q 1534 4250 1286 3958 
Q 1038 3666 1038 3163 
Q 1038 2656 1286 2365 
Q 1534 2075 1959 2075 
z
" transform="scale(0.015625)"/>
      </defs>
      <use xlink:href="#DejaVuSans-32"/>
      <use xlink:href="#DejaVuSans-45" transform="translate(78.71875 0)"/>
      <use xlink:href="#DejaVuSans-56" transform="translate(142.203125 0)"/>
      <use xlink:href="#DejaVuSans-48" transform="translate(194.296875 0)"/>
      <use xlink:href="#DejaVuSans-55" transform="translate(255.828125 0)"/>
      <use xlink:href="#DejaVuSans-59" transform="translate(296.9375 0)"/>
      <use xlink:href="#DejaVuSans-48" transform="translate(356.125 0)"/>
      <use xlink:href="#DejaVuSans-47" transform="translate(417.65625 0)"/>
      <use xlink:href="#DejaVuSans-3" transform="translate(481.140625 0)"/>
      <use xlink:href="#DejaVuSans-52" transform="translate(512.921875 0)"/>
      <use xlink:href="#DejaVuSans-51" transform="translate(574.109375 0)"/>
      <use xlink:href="#DejaVuSans-56" transform="translate(637.484375 0)"/>
      <use xlink:href="#DejaVuSans-48" transform="translate(689.578125 0)"/>
      <use xlink:href="#DejaVuSans-57" transform="translate(751.109375 0)"/>
      <use xlink:href="#DejaVuSans-3" transform="translate(790.3125 0)"/>
      <use xlink:href="#DejaVuSans-b" transform="translate(822.09375 0)"/>
      <use xlink:href="#DejaVuSans-51" transform="translate(861.109375 0)"/>
      <use xlink:href="#DejaVuSans-20" transform="translate(924.484375 0)"/>
      <use xlink:href="#DejaVuSans-1c" transform="translate(1008.28125 0)"/>
      <use xlink:href="#DejaVuSans-13" transform="translate(1071.90625 0)"/>
      <use xlink:href="#DejaVuSans-c" transform="translate(1135.53125 0)"/>
     </g>
    </g>
    <g id="line2d_28">
     <path d="M 334.98125 58.437656 
L 342.98125 58.437656 
L 350.98125 58.437656 
" style="fill: none; stroke: #e34948; stroke-width: 2; stroke-linecap: square"/>
    </g>
    <g id="text_18">
     <!-- Fitted Weibull (beta=0.66) -->
     <g style="fill: #0b0b0b" transform="translate(357.38125 61.237656) scale(0.08 -0.08)">
      <use xlink:href="#DejaVuSans-29"/>
      <use xlink:href="#DejaVuSans-4c" transform="translate(50.234375 0)"/>
      <use xlink:href="#DejaVuSans-57" transform="translate(78.015625 0)"/>
      <use xlink:href="#DejaVuSans-57" transform="translate(117.21875 0)"/>
      <use xlink:href="#DejaVuSans-48" transform="translate(156.421875 0)"/>
      <use xlink:href="#DejaVuSans-47" transform="translate(217.953125 0)"/>
      <use xlink:href="#DejaVuSans-3" transform="translate(281.4375 0)"/>
      <use xlink:href="#DejaVuSans-3a" transform="translate(313.21875 0)"/>
      <use xlink:href="#DejaVuSans-48" transform="translate(406.234375 0)"/>
      <use xlink:href="#DejaVuSans-4c" transform="translate(467.765625 0)"/>
      <use xlink:href="#DejaVuSans-45" transform="translate(495.546875 0)"/>
      <use xlink:href="#DejaVuSans-58" transform="translate(559.03125 0)"/>
      <use xlink:href="#DejaVuSans-4f" transform="translate(622.40625 0)"/>
      <use xlink:href="#DejaVuSans-4f" transform="translate(650.1875 0)"/>
      <use xlink:href="#DejaVuSans-3" transform="translate(677.96875 0)"/>
      <use xlink:href="#DejaVuSans-b" transform="translate(709.75 0)"/>
      <use xlink:href="#DejaVuSans-45" transform="translate(748.765625 0)"/>
      <use xlink:href="#DejaVuSans-48" transform="translate(812.25 0)"/>
      <use xlink:href="#DejaVuSans-57" transform="translate(873.78125 0)"/>
      <use xlink:href="#DejaVuSans-44" transform="translate(912.984375 0)"/>
      <use xlink:href="#DejaVuSans-20" transform="translate(974.265625 0)"/>
      <use xlink:href="#DejaVuSans-13" transform="translate(1058.0625 0)"/>
      <use xlink:href="#DejaVuSans-11" transform="translate(1121.6875 0)"/>
      <use xlink:href="#DejaVuSans-19" transform="translate(1153.46875 0)"/>
      <use xlink:href="#DejaVuSans-19" transform="translate(1217.09375 0)"/>
      <use xlink:href="#DejaVuSans-c" transform="translate(1280.71875 0)"/>
     </g>
    </g>
   </g>
  </g>
  <g id="text_19">
   <!-- F4. N=416 cases, datopotamab deruxtecan Primary Suspect, FAERS 2025Q1-2026Q1. Onset = EVENT_DT - drug-specific START_DT; valid for 90/416 cases -->
   <g style="fill: #52514e" transform="translate(21.6 304.584346) scale(0.065 -0.065)">
    <defs>
     <path id="DejaVuSans-31" d="M 628 4666 
L 1478 4666 
L 3547 763 
L 3547 4666 
L 4159 4666 
L 4159 0 
L 3309 0 
L 1241 3903 
L 1241 0 
L 628 0 
L 628 4666 
z
" transform="scale(0.015625)"/>
     <path id="DejaVuSans-f" d="M 750 794 
L 1409 794 
L 1409 256 
L 897 -744 
L 494 -744 
L 750 256 
L 750 794 
z
" transform="scale(0.015625)"/>
     <path id="DejaVuSans-53" d="M 1159 525 
L 1159 -1331 
L 581 -1331 
L 581 3500 
L 1159 3500 
L 1159 2969 
Q 1341 3281 1617 3432 
Q 1894 3584 2278 3584 
Q 2916 3584 3314 3078 
Q 3713 2572 3713 1747 
Q 3713 922 3314 415 
Q 2916 -91 2278 -91 
Q 1894 -91 1617 61 
Q 1341 213 1159 525 
z
M 3116 1747 
Q 3116 2381 2855 2742 
Q 2594 3103 2138 3103 
Q 1681 3103 1420 2742 
Q 1159 2381 1159 1747 
Q 1159 1113 1420 752 
Q 1681 391 2138 391 
Q 2594 391 2855 752 
Q 3116 1113 3116 1747 
z
" transform="scale(0.015625)"/>
     <path id="DejaVuSans-5b" d="M 3513 3500 
L 2247 1797 
L 3578 0 
L 2900 0 
L 1881 1375 
L 863 0 
L 184 0 
L 1544 1831 
L 300 3500 
L 978 3500 
L 1906 2253 
L 2834 3500 
L 3513 3500 
z
" transform="scale(0.015625)"/>
     <path id="DejaVuSans-33" d="M 1259 4147 
L 1259 2394 
L 2053 2394 
Q 2494 2394 2734 2622 
Q 2975 2850 2975 3272 
Q 2975 3691 2734 3919 
Q 2494 4147 2053 4147 
L 1259 4147 
z
M 628 4666 
L 2053 4666 
Q 2838 4666 3239 4311 
Q 3641 3956 3641 3272 
Q 3641 2581 3239 2228 
Q 2838 1875 2053 1875 
L 1259 1875 
L 1259 0 
L 628 0 
L 628 4666 
z
" transform="scale(0.015625)"/>
     <path id="DejaVuSans-36" d="M 3425 4513 
L 3425 3897 
Q 3066 4069 2747 4153 
Q 2428 4238 2131 4238 
Q 1616 4238 1336 4038 
Q 1056 3838 1056 3469 
Q 1056 3159 1242 3001 
Q 1428 2844 1947 2747 
L 2328 2669 
Q 3034 2534 3370 2195 
Q 3706 1856 3706 1288 
Q 3706 609 3251 259 
Q 2797 -91 1919 -91 
Q 1588 -91 1214 -16 
Q 841 59 441 206 
L 441 856 
Q 825 641 1194 531 
Q 1563 422 1919 422 
Q 2459 422 2753 634 
Q 3047 847 3047 1241 
Q 3047 1584 2836 1778 
Q 2625 1972 2144 2069 
L 1759 2144 
Q 1053 2284 737 2584 
Q 422 2884 422 3419 
Q 422 4038 858 4394 
Q 1294 4750 2059 4750 
Q 2388 4750 2728 4690 
Q 3069 4631 3425 4513 
z
" transform="scale(0.015625)"/>
     <path id="DejaVuSans-24" d="M 2188 4044 
L 1331 1722 
L 3047 1722 
L 2188 4044 
z
M 1831 4666 
L 2547 4666 
L 4325 0 
L 3669 0 
L 3244 1197 
L 1141 1197 
L 716 0 
L 50 0 
L 1831 4666 
z
" transform="scale(0.015625)"/>
     <path id="DejaVuSans-28" d="M 628 4666 
L 3578 4666 
L 3578 4134 
L 1259 4134 
L 1259 2753 
L 3481 2753 
L 3481 2222 
L 1259 2222 
L 1259 531 
L 3634 531 
L 3634 0 
L 628 0 
L 628 4666 
z
" transform="scale(0.015625)"/>
     <path id="DejaVuSans-35" d="M 2841 2188 
Q 3044 2119 3236 1894 
Q 3428 1669 3622 1275 
L 4263 0 
L 3584 0 
L 2988 1197 
Q 2756 1666 2539 1819 
Q 2322 1972 1947 1972 
L 1259 1972 
L 1259 0 
L 628 0 
L 628 4666 
L 2053 4666 
Q 2853 4666 3247 4331 
Q 3641 3997 3641 3322 
Q 3641 2881 3436 2590 
Q 3231 2300 2841 2188 
z
M 1259 4147 
L 1259 2491 
L 2053 2491 
Q 2509 2491 2742 2702 
Q 2975 2913 2975 3322 
Q 2975 3731 2742 3939 
Q 2509 4147 2053 4147 
L 1259 4147 
z
" transform="scale(0.015625)"/>
     <path id="DejaVuSans-34" d="M 2522 4238 
Q 1834 4238 1429 3725 
Q 1025 3213 1025 2328 
Q 1025 1447 1429 934 
Q 1834 422 2522 422 
Q 3209 422 3611 934 
Q 4013 1447 4013 2328 
Q 4013 3213 3611 3725 
Q 3209 4238 2522 4238 
z
M 3406 84 
L 4238 -825 
L 3475 -825 
L 2784 -78 
Q 2681 -84 2626 -87 
Q 2572 -91 2522 -91 
Q 1538 -91 948 567 
Q 359 1225 359 2328 
Q 359 3434 948 4092 
Q 1538 4750 2522 4750 
Q 3503 4750 4090 4092 
Q 4678 3434 4678 2328 
Q 4678 1516 4351 937 
Q 4025 359 3406 84 
z
" transform="scale(0.015625)"/>
     <path id="DejaVuSans-39" d="M 1831 0 
L 50 4666 
L 709 4666 
L 2188 738 
L 3669 4666 
L 4325 4666 
L 2547 0 
L 1831 0 
z
" transform="scale(0.015625)"/>
     <path id="DejaVuSans-42" d="M 3263 -1063 
L 3263 -1509 
L -63 -1509 
L -63 -1063 
L 3263 -1063 
z
" transform="scale(0.015625)"/>
     <path id="DejaVuSans-4a" d="M 2906 1791 
Q 2906 2416 2648 2759 
Q 2391 3103 1925 3103 
Q 1463 3103 1205 2759 
Q 947 2416 947 1791 
Q 947 1169 1205 825 
Q 1463 481 1925 481 
Q 2391 481 2648 825 
Q 2906 1169 2906 1791 
z
M 3481 434 
Q 3481 -459 3084 -895 
Q 2688 -1331 1869 -1331 
Q 1566 -1331 1297 -1286 
Q 1028 -1241 775 -1147 
L 775 -588 
Q 1028 -725 1275 -790 
Q 1522 -856 1778 -856 
Q 2344 -856 2625 -561 
Q 2906 -266 2906 331 
L 2906 616 
Q 2728 306 2450 153 
Q 2172 0 1784 0 
Q 1141 0 747 490 
Q 353 981 353 1791 
Q 353 2603 747 3093 
Q 1141 3584 1784 3584 
Q 2172 3584 2450 3431 
Q 2728 3278 2906 2969 
L 2906 3500 
L 3481 3500 
L 3481 434 
z
" transform="scale(0.015625)"/>
     <path id="DejaVuSans-1e" d="M 750 3309 
L 1409 3309 
L 1409 2516 
L 750 2516 
L 750 3309 
z
M 750 794 
L 1409 794 
L 1409 256 
L 897 -744 
L 494 -744 
L 750 256 
L 750 794 
z
" transform="scale(0.015625)"/>
     <path id="DejaVuSans-49" d="M 2375 4863 
L 2375 4384 
L 1825 4384 
Q 1516 4384 1395 4259 
Q 1275 4134 1275 3809 
L 1275 3500 
L 2222 3500 
L 2222 3053 
L 1275 3053 
L 1275 0 
L 697 0 
L 697 3053 
L 147 3053 
L 147 3500 
L 697 3500 
L 697 3744 
Q 697 4328 969 4595 
Q 1241 4863 1831 4863 
L 2375 4863 
z
" transform="scale(0.015625)"/>
     <path id="DejaVuSans-12" d="M 1625 4666 
L 2156 4666 
L 531 -594 
L 0 -594 
L 1625 4666 
z
" transform="scale(0.015625)"/>
    </defs>
    <use xlink:href="#DejaVuSans-29"/>
    <use xlink:href="#DejaVuSans-17" transform="translate(57.515625 0)"/>
    <use xlink:href="#DejaVuSans-11" transform="translate(121.140625 0)"/>
    <use xlink:href="#DejaVuSans-3" transform="translate(152.921875 0)"/>
    <use xlink:href="#DejaVuSans-31" transform="translate(184.703125 0)"/>
    <use xlink:href="#DejaVuSans-20" transform="translate(259.515625 0)"/>
    <use xlink:href="#DejaVuSans-17" transform="translate(343.3125 0)"/>
    <use xlink:href="#DejaVuSans-14" transform="translate(406.9375 0)"/>
    <use xlink:href="#DejaVuSans-19" transform="translate(470.5625 0)"/>
    <use xlink:href="#DejaVuSans-3" transform="translate(534.1875 0)"/>
    <use xlink:href="#DejaVuSans-46" transform="translate(565.96875 0)"/>
    <use xlink:href="#DejaVuSans-44" transform="translate(620.953125 0)"/>
    <use xlink:href="#DejaVuSans-56" transform="translate(682.234375 0)"/>
    <use xlink:href="#DejaVuSans-48" transform="translate(734.328125 0)"/>
    <use xlink:href="#DejaVuSans-56" transform="translate(795.859375 0)"/>
    <use xlink:href="#DejaVuSans-f" transform="translate(847.953125 0)"/>
    <use xlink:href="#DejaVuSans-3" transform="translate(879.734375 0)"/>
    <use xlink:href="#DejaVuSans-47" transform="translate(911.515625 0)"/>
    <use xlink:href="#DejaVuSans-44" transform="translate(975 0)"/>
    <use xlink:href="#DejaVuSans-57" transform="translate(1036.28125 0)"/>
    <use xlink:href="#DejaVuSans-52" transform="translate(1075.484375 0)"/>
    <use xlink:href="#DejaVuSans-53" transform="translate(1136.671875 0)"/>
    <use xlink:href="#DejaVuSans-52" transform="translate(1200.15625 0)"/>
    <use xlink:href="#DejaVuSans-57" transform="translate(1261.34375 0)"/>
    <use xlink:href="#DejaVuSans-44" transform="translate(1300.546875 0)"/>
    <use xlink:href="#DejaVuSans-50" transform="translate(1361.828125 0)"/>
    <use xlink:href="#DejaVuSans-44" transform="translate(1459.234375 0)"/>
    <use xlink:href="#DejaVuSans-45" transform="translate(1520.515625 0)"/>
    <use xlink:href="#DejaVuSans-3" transform="translate(1584 0)"/>
    <use xlink:href="#DejaVuSans-47" transform="translate(1615.78125 0)"/>
    <use xlink:href="#DejaVuSans-48" transform="translate(1679.265625 0)"/>
    <use xlink:href="#DejaVuSans-55" transform="translate(1740.796875 0)"/>
    <use xlink:href="#DejaVuSans-58" transform="translate(1781.90625 0)"/>
    <use xlink:href="#DejaVuSans-5b" transform="translate(1845.28125 0)"/>
    <use xlink:href="#DejaVuSans-57" transform="translate(1904.46875 0)"/>
    <use xlink:href="#DejaVuSans-48" transform="translate(1943.671875 0)"/>
    <use xlink:href="#DejaVuSans-46" transform="translate(2005.203125 0)"/>
    <use xlink:href="#DejaVuSans-44" transform="translate(2060.1875 0)"/>
    <use xlink:href="#DejaVuSans-51" transform="translate(2121.46875 0)"/>
    <use xlink:href="#DejaVuSans-3" transform="translate(2184.84375 0)"/>
    <use xlink:href="#DejaVuSans-33" transform="translate(2216.625 0)"/>
    <use xlink:href="#DejaVuSans-55" transform="translate(2275.171875 0)"/>
    <use xlink:href="#DejaVuSans-4c" transform="translate(2316.28125 0)"/>
    <use xlink:href="#DejaVuSans-50" transform="translate(2344.0625 0)"/>
    <use xlink:href="#DejaVuSans-44" transform="translate(2441.46875 0)"/>
    <use xlink:href="#DejaVuSans-55" transform="translate(2502.75 0)"/>
    <use xlink:href="#DejaVuSans-5c" transform="translate(2543.859375 0)"/>
    <use xlink:href="#DejaVuSans-3" transform="translate(2603.046875 0)"/>
    <use xlink:href="#DejaVuSans-36" transform="translate(2634.828125 0)"/>
    <use xlink:href="#DejaVuSans-58" transform="translate(2698.3125 0)"/>
    <use xlink:href="#DejaVuSans-56" transform="translate(2761.6875 0)"/>
    <use xlink:href="#DejaVuSans-53" transform="translate(2813.78125 0)"/>
    <use xlink:href="#DejaVuSans-48" transform="translate(2877.265625 0)"/>
    <use xlink:href="#DejaVuSans-46" transform="translate(2938.796875 0)"/>
    <use xlink:href="#DejaVuSans-57" transform="translate(2993.78125 0)"/>
    <use xlink:href="#DejaVuSans-f" transform="translate(3032.984375 0)"/>
    <use xlink:href="#DejaVuSans-3" transform="translate(3064.765625 0)"/>
    <use xlink:href="#DejaVuSans-29" transform="translate(3096.546875 0)"/>
    <use xlink:href="#DejaVuSans-24" transform="translate(3144.890625 0)"/>
    <use xlink:href="#DejaVuSans-28" transform="translate(3213.296875 0)"/>
    <use xlink:href="#DejaVuSans-35" transform="translate(3276.484375 0)"/>
    <use xlink:href="#DejaVuSans-36" transform="translate(3345.96875 0)"/>
    <use xlink:href="#DejaVuSans-3" transform="translate(3409.453125 0)"/>
    <use xlink:href="#DejaVuSans-15" transform="translate(3441.234375 0)"/>
    <use xlink:href="#DejaVuSans-13" transform="translate(3504.859375 0)"/>
    <use xlink:href="#DejaVuSans-15" transform="translate(3568.484375 0)"/>
    <use xlink:href="#DejaVuSans-18" transform="translate(3632.109375 0)"/>
    <use xlink:href="#DejaVuSans-34" transform="translate(3695.734375 0)"/>
    <use xlink:href="#DejaVuSans-14" transform="translate(3774.453125 0)"/>
    <use xlink:href="#DejaVuSans-10" transform="translate(3838.078125 0)"/>
    <use xlink:href="#DejaVuSans-15" transform="translate(3874.15625 0)"/>
    <use xlink:href="#DejaVuSans-13" transform="translate(3937.78125 0)"/>
    <use xlink:href="#DejaVuSans-15" transform="translate(4001.40625 0)"/>
    <use xlink:href="#DejaVuSans-19" transform="translate(4065.03125 0)"/>
    <use xlink:href="#DejaVuSans-34" transform="translate(4128.65625 0)"/>
    <use xlink:href="#DejaVuSans-14" transform="translate(4207.375 0)"/>
    <use xlink:href="#DejaVuSans-11" transform="translate(4271 0)"/>
    <use xlink:href="#DejaVuSans-3" transform="translate(4302.78125 0)"/>
    <use xlink:href="#DejaVuSans-32" transform="translate(4334.5625 0)"/>
    <use xlink:href="#DejaVuSans-51" transform="translate(4413.28125 0)"/>
    <use xlink:href="#DejaVuSans-56" transform="translate(4476.65625 0)"/>
    <use xlink:href="#DejaVuSans-48" transform="translate(4528.75 0)"/>
    <use xlink:href="#DejaVuSans-57" transform="translate(4590.28125 0)"/>
    <use xlink:href="#DejaVuSans-3" transform="translate(4629.484375 0)"/>
    <use xlink:href="#DejaVuSans-20" transform="translate(4661.265625 0)"/>
    <use xlink:href="#DejaVuSans-3" transform="translate(4745.0625 0)"/>
    <use xlink:href="#DejaVuSans-28" transform="translate(4776.84375 0)"/>
    <use xlink:href="#DejaVuSans-39" transform="translate(4840.03125 0)"/>
    <use xlink:href="#DejaVuSans-28" transform="translate(4908.4375 0)"/>
    <use xlink:href="#DejaVuSans-31" transform="translate(4971.625 0)"/>
    <use xlink:href="#DejaVuSans-37" transform="translate(5046.4375 0)"/>
    <use xlink:href="#DejaVuSans-42" transform="translate(5107.515625 0)"/>
    <use xlink:href="#DejaVuSans-27" transform="translate(5157.515625 0)"/>
    <use xlink:href="#DejaVuSans-37" transform="translate(5234.515625 0)"/>
    <use xlink:href="#DejaVuSans-3" transform="translate(5295.59375 0)"/>
    <use xlink:href="#DejaVuSans-10" transform="translate(5327.375 0)"/>
    <use xlink:href="#DejaVuSans-3" transform="translate(5363.453125 0)"/>
    <use xlink:href="#DejaVuSans-47" transform="translate(5395.234375 0)"/>
    <use xlink:href="#DejaVuSans-55" transform="translate(5458.71875 0)"/>
    <use xlink:href="#DejaVuSans-58" transform="translate(5499.828125 0)"/>
    <use xlink:href="#DejaVuSans-4a" transform="translate(5563.203125 0)"/>
    <use xlink:href="#DejaVuSans-10" transform="translate(5626.6875 0)"/>
    <use xlink:href="#DejaVuSans-56" transform="translate(5662.765625 0)"/>
    <use xlink:href="#DejaVuSans-53" transform="translate(5714.859375 0)"/>
    <use xlink:href="#DejaVuSans-48" transform="translate(5778.34375 0)"/>
    <use xlink:href="#DejaVuSans-46" transform="translate(5839.875 0)"/>
    <use xlink:href="#DejaVuSans-4c" transform="translate(5894.859375 0)"/>
    <use xlink:href="#DejaVuSans-13af" transform="translate(5922.640625 0)"/>
    <use xlink:href="#DejaVuSans-46" transform="translate(5985.625 0)"/>
    <use xlink:href="#DejaVuSans-3" transform="translate(6040.609375 0)"/>
    <use xlink:href="#DejaVuSans-36" transform="translate(6072.390625 0)"/>
    <use xlink:href="#DejaVuSans-37" transform="translate(6135.875 0)"/>
    <use xlink:href="#DejaVuSans-24" transform="translate(6189.1875 0)"/>
    <use xlink:href="#DejaVuSans-35" transform="translate(6257.59375 0)"/>
    <use xlink:href="#DejaVuSans-37" transform="translate(6319.796875 0)"/>
    <use xlink:href="#DejaVuSans-42" transform="translate(6380.875 0)"/>
    <use xlink:href="#DejaVuSans-27" transform="translate(6430.875 0)"/>
    <use xlink:href="#DejaVuSans-37" transform="translate(6507.875 0)"/>
    <use xlink:href="#DejaVuSans-1e" transform="translate(6568.953125 0)"/>
    <use xlink:href="#DejaVuSans-3" transform="translate(6602.640625 0)"/>
    <use xlink:href="#DejaVuSans-59" transform="translate(6634.421875 0)"/>
    <use xlink:href="#DejaVuSans-44" transform="translate(6693.609375 0)"/>
    <use xlink:href="#DejaVuSans-4f" transform="translate(6754.890625 0)"/>
    <use xlink:href="#DejaVuSans-4c" transform="translate(6782.671875 0)"/>
    <use xlink:href="#DejaVuSans-47" transform="translate(6810.453125 0)"/>
    <use xlink:href="#DejaVuSans-3" transform="translate(6873.9375 0)"/>
    <use xlink:href="#DejaVuSans-49" transform="translate(6905.71875 0)"/>
    <use xlink:href="#DejaVuSans-52" transform="translate(6940.921875 0)"/>
    <use xlink:href="#DejaVuSans-55" transform="translate(7002.109375 0)"/>
    <use xlink:href="#DejaVuSans-3" transform="translate(7043.21875 0)"/>
    <use xlink:href="#DejaVuSans-1c" transform="translate(7075 0)"/>
    <use xlink:href="#DejaVuSans-13" transform="translate(7138.625 0)"/>
    <use xlink:href="#DejaVuSans-12" transform="translate(7202.25 0)"/>
    <use xlink:href="#DejaVuSans-17" transform="translate(7235.9375 0)"/>
    <use xlink:href="#DejaVuSans-14" transform="translate(7299.5625 0)"/>
    <use xlink:href="#DejaVuSans-19" transform="translate(7363.1875 0)"/>
    <use xlink:href="#DejaVuSans-3" transform="translate(7426.8125 0)"/>
    <use xlink:href="#DejaVuSans-46" transform="translate(7458.59375 0)"/>
    <use xlink:href="#DejaVuSans-44" transform="translate(7513.578125 0)"/>
    <use xlink:href="#DejaVuSans-56" transform="translate(7574.859375 0)"/>
    <use xlink:href="#DejaVuSans-48" transform="translate(7626.953125 0)"/>
    <use xlink:href="#DejaVuSans-56" transform="translate(7688.484375 0)"/>
   </g>
   <!-- (21.6%) after dropping negative/implausible values (see docs). -->
   <g style="fill: #52514e" transform="translate(21.6 312.386123) scale(0.065 -0.065)">
    <defs>
     <path id="DejaVuSans-8" d="M 4653 2053 
Q 4381 2053 4226 1822 
Q 4072 1591 4072 1178 
Q 4072 772 4226 539 
Q 4381 306 4653 306 
Q 4919 306 5073 539 
Q 5228 772 5228 1178 
Q 5228 1588 5073 1820 
Q 4919 2053 4653 2053 
z
M 4653 2450 
Q 5147 2450 5437 2106 
Q 5728 1763 5728 1178 
Q 5728 594 5436 251 
Q 5144 -91 4653 -91 
Q 4153 -91 3862 251 
Q 3572 594 3572 1178 
Q 3572 1766 3864 2108 
Q 4156 2450 4653 2450 
z
M 1428 4353 
Q 1159 4353 1004 4120 
Q 850 3888 850 3481 
Q 850 3069 1003 2837 
Q 1156 2606 1428 2606 
Q 1700 2606 1854 2837 
Q 2009 3069 2009 3481 
Q 2009 3884 1853 4118 
Q 1697 4353 1428 4353 
z
M 4250 4750 
L 4750 4750 
L 1831 -91 
L 1331 -91 
L 4250 4750 
z
M 1428 4750 
Q 1922 4750 2215 4408 
Q 2509 4066 2509 3481 
Q 2509 2891 2217 2550 
Q 1925 2209 1428 2209 
Q 931 2209 642 2551 
Q 353 2894 353 3481 
Q 353 4063 643 4406 
Q 934 4750 1428 4750 
z
" transform="scale(0.015625)"/>
    </defs>
    <use xlink:href="#DejaVuSans-b"/>
    <use xlink:href="#DejaVuSans-15" transform="translate(39.015625 0)"/>
    <use xlink:href="#DejaVuSans-14" transform="translate(102.640625 0)"/>
    <use xlink:href="#DejaVuSans-11" transform="translate(166.265625 0)"/>
    <use xlink:href="#DejaVuSans-19" transform="translate(198.046875 0)"/>
    <use xlink:href="#DejaVuSans-8" transform="translate(261.671875 0)"/>
    <use xlink:href="#DejaVuSans-c" transform="translate(356.6875 0)"/>
    <use xlink:href="#DejaVuSans-3" transform="translate(395.703125 0)"/>
    <use xlink:href="#DejaVuSans-44" transform="translate(427.484375 0)"/>
    <use xlink:href="#DejaVuSans-49" transform="translate(488.765625 0)"/>
    <use xlink:href="#DejaVuSans-57" transform="translate(522.21875 0)"/>
    <use xlink:href="#DejaVuSans-48" transform="translate(561.421875 0)"/>
    <use xlink:href="#DejaVuSans-55" transform="translate(622.953125 0)"/>
    <use xlink:href="#DejaVuSans-3" transform="translate(664.0625 0)"/>
    <use xlink:href="#DejaVuSans-47" transform="translate(695.84375 0)"/>
    <use xlink:href="#DejaVuSans-55" transform="translate(759.328125 0)"/>
    <use xlink:href="#DejaVuSans-52" transform="translate(798.234375 0)"/>
    <use xlink:href="#DejaVuSans-53" transform="translate(859.421875 0)"/>
    <use xlink:href="#DejaVuSans-53" transform="translate(922.90625 0)"/>
    <use xlink:href="#DejaVuSans-4c" transform="translate(986.390625 0)"/>
    <use xlink:href="#DejaVuSans-51" transform="translate(1014.171875 0)"/>
    <use xlink:href="#DejaVuSans-4a" transform="translate(1077.546875 0)"/>
    <use xlink:href="#DejaVuSans-3" transform="translate(1141.03125 0)"/>
    <use xlink:href="#DejaVuSans-51" transform="translate(1172.8125 0)"/>
    <use xlink:href="#DejaVuSans-48" transform="translate(1236.1875 0)"/>
    <use xlink:href="#DejaVuSans-4a" transform="translate(1297.71875 0)"/>
    <use xlink:href="#DejaVuSans-44" transform="translate(1361.203125 0)"/>
    <use xlink:href="#DejaVuSans-57" transform="translate(1422.484375 0)"/>
    <use xlink:href="#DejaVuSans-4c" transform="translate(1461.6875 0)"/>
    <use xlink:href="#DejaVuSans-59" transform="translate(1489.46875 0)"/>
    <use xlink:href="#DejaVuSans-48" transform="translate(1548.65625 0)"/>
    <use xlink:href="#DejaVuSans-12" transform="translate(1610.1875 0)"/>
    <use xlink:href="#DejaVuSans-4c" transform="translate(1643.875 0)"/>
    <use xlink:href="#DejaVuSans-50" transform="translate(1671.65625 0)"/>
    <use xlink:href="#DejaVuSans-53" transform="translate(1769.0625 0)"/>
    <use xlink:href="#DejaVuSans-4f" transform="translate(1832.546875 0)"/>
    <use xlink:href="#DejaVuSans-44" transform="translate(1860.328125 0)"/>
    <use xlink:href="#DejaVuSans-58" transform="translate(1921.609375 0)"/>
    <use xlink:href="#DejaVuSans-56" transform="translate(1984.984375 0)"/>
    <use xlink:href="#DejaVuSans-4c" transform="translate(2037.078125 0)"/>
    <use xlink:href="#DejaVuSans-45" transform="translate(2064.859375 0)"/>
    <use xlink:href="#DejaVuSans-4f" transform="translate(2128.34375 0)"/>
    <use xlink:href="#DejaVuSans-48" transform="translate(2156.125 0)"/>
    <use xlink:href="#DejaVuSans-3" transform="translate(2217.65625 0)"/>
    <use xlink:href="#DejaVuSans-59" transform="translate(2249.4375 0)"/>
    <use xlink:href="#DejaVuSans-44" transform="translate(2308.625 0)"/>
    <use xlink:href="#DejaVuSans-4f" transform="translate(2369.90625 0)"/>
    <use xlink:href="#DejaVuSans-58" transform="translate(2397.6875 0)"/>
    <use xlink:href="#DejaVuSans-48" transform="translate(2461.0625 0)"/>
    <use xlink:href="#DejaVuSans-56" transform="translate(2522.59375 0)"/>
    <use xlink:href="#DejaVuSans-3" transform="translate(2574.6875 0)"/>
    <use xlink:href="#DejaVuSans-b" transform="translate(2606.46875 0)"/>
    <use xlink:href="#DejaVuSans-56" transform="translate(2645.484375 0)"/>
    <use xlink:href="#DejaVuSans-48" transform="translate(2697.578125 0)"/>
    <use xlink:href="#DejaVuSans-48" transform="translate(2759.109375 0)"/>
    <use xlink:href="#DejaVuSans-3" transform="translate(2820.640625 0)"/>
    <use xlink:href="#DejaVuSans-47" transform="translate(2852.421875 0)"/>
    <use xlink:href="#DejaVuSans-52" transform="translate(2915.90625 0)"/>
    <use xlink:href="#DejaVuSans-46" transform="translate(2977.09375 0)"/>
    <use xlink:href="#DejaVuSans-56" transform="translate(3032.078125 0)"/>
    <use xlink:href="#DejaVuSans-c" transform="translate(3084.171875 0)"/>
    <use xlink:href="#DejaVuSans-11" transform="translate(3123.1875 0)"/>
   </g>
  </g>
 </g>
 <defs>
  <clipPath id="p46503fdf3c">
   <rect x="79.56" y="35.958281" width="390.6" height="213.84"/>
  </clipPath>
 </defs>
</svg>
